<svg width="196" height="196" viewBox="0 0 196 196" fill="none" xmlns="http://www.w3.org/2000/svg">
<path fill-rule="evenodd" clip-rule="evenodd" d="M164.496 172.778H30.5704C26.0031 172.778 22.2461 169.094 22.2461 164.453V30.5272C22.2461 25.9599 25.9294 22.2029 30.5704 22.2029H164.496C169.064 22.2029 172.821 25.8862 172.821 30.5272V164.453C172.821 169.021 169.064 172.778 164.496 172.778Z" fill="#DBDCE3"/>
<path d="M172.82 118.043H87.8828V126.957H172.82V118.043Z" fill="white"/>
<path d="M108.657 68.1709H22.2461V77.0846H108.657V68.1709Z" fill="white"/>
<path d="M93.2613 59.7729H84.3477V172.778H93.2613V59.7729Z" fill="white"/>
<path d="M52.3758 139.48H22.2461V148.394H52.3758V139.48Z" fill="white"/>
<path d="M93.2613 22.2029H84.3477V72.4436H93.2613V22.2029Z" fill="white"/>
<path d="M143.281 122.463H134.367V172.778H143.281V122.463Z" fill="white"/>
<path d="M145.711 22.2029H136.797V75.9796H145.711V22.2029Z" fill="white"/>
<path d="M84.8611 148.394H50.1641V139.48H84.3454V76.5689C84.3454 71.9279 88.1024 68.1709 92.7434 68.1709L153.15 68.0236V76.9373L93.2591 77.0846V139.996C93.2591 142.206 92.3751 144.342 90.8281 145.963C89.2074 147.51 87.0711 148.394 84.8611 148.394Z" fill="#20DFCC"/>
<path fill-rule="evenodd" clip-rule="evenodd" d="M50.7562 60.9516C43.6105 60.9516 36.9069 64.7822 33.1499 71.1176C29.3929 77.4529 29.0245 85.3352 32.2659 91.9652C38.2329 104.268 47.2202 121.285 49.2092 125.189C49.5039 125.705 50.0195 125.999 50.5352 125.999C50.6825 125.999 50.8299 125.999 50.9772 125.999C51.5665 125.999 52.0822 125.705 52.3769 125.189C54.5132 120.99 64.3109 102.131 69.2465 91.9652C72.4879 85.3352 72.1195 77.4529 68.3625 71.1176C64.6055 64.7822 57.9755 60.9516 50.7562 60.9516Z" fill="#0050FF"/>
<path d="M58.1551 82.132C58.1745 78.0635 54.892 74.7497 50.8235 74.7303C46.755 74.7109 43.4412 77.9934 43.4218 82.0619C43.4024 86.1304 46.6849 89.4443 50.7534 89.4636C54.8219 89.483 58.1358 86.2005 58.1551 82.132Z" fill="white"/>
<path d="M52.3277 152.583C57.2048 151.463 60.2498 146.6 59.1289 141.723C58.0079 136.846 53.1455 133.801 48.2684 134.922C43.3912 136.043 40.3462 140.905 41.4672 145.782C42.5881 150.659 47.4505 153.704 52.3277 152.583Z" fill="#0050FF"/>
<path d="M160.297 96.6063C173.56 96.6063 184.312 85.8542 184.312 72.5909C184.312 59.3276 173.56 48.5756 160.297 48.5756C147.033 48.5756 136.281 59.3276 136.281 72.5909C136.281 85.8542 147.033 96.6063 160.297 96.6063Z" fill="#20DFCC"/>
<path fill-rule="evenodd" clip-rule="evenodd" d="M50.3139 140.364C48.3986 140.364 46.8516 141.911 46.8516 143.827C46.8516 145.742 48.3986 147.289 50.3139 147.289C52.2292 147.289 53.7762 145.742 53.7762 143.827C53.7026 141.911 52.1556 140.364 50.3139 140.364Z" fill="white"/>
<path fill-rule="evenodd" clip-rule="evenodd" d="M145.711 29.7906C146.521 34.5789 150.278 38.3359 155.14 39.2199C150.352 40.0303 146.595 43.7873 145.711 48.6493C144.9 43.8609 141.143 40.1039 136.281 39.2199C141.07 38.4096 144.827 34.6526 145.711 29.7906Z" fill="#FFB4B4"/>
<path fill-rule="evenodd" clip-rule="evenodd" d="M178.272 94.6909C178.861 98.0059 181.439 100.584 184.754 101.174C181.439 101.763 178.861 104.341 178.272 107.656C177.682 104.341 175.104 101.763 171.789 101.174C175.104 100.584 177.682 98.0059 178.272 94.6909Z" fill="#CCE0FF"/>
<path d="M144.089 72.4436C147.33 77.0846 154.328 82.4623 162.211 81.5783C167.883 80.9889 169.577 78.3369 170.535 77.0846C171.787 76.3479 174.66 74.6536 169.946 68.6129C167.957 66.1083 166.483 64.3403 166.189 63.5299C165.894 62.7196 167.883 62.3513 167.441 61.7619C167.294 61.6146 167.146 61.4673 166.999 61.2463C166.557 60.8043 165.894 60.8043 165.378 61.1726L164.936 61.4673C164.347 61.9093 164.126 62.8669 164.421 63.5299C165.599 66.3293 167.294 72.6646 166.999 75.3166C166.631 78.1896 164.642 78.1159 161.032 77.9686C157.422 77.8949 156.244 76.2006 156.686 74.4326C157.128 72.6646 160.516 68.4656 156.538 67.5079C153.15 66.6976 149.614 66.7713 147.772 66.9923C145.194 67.4343 142.763 70.5283 144.089 72.4436Z" fill="#0E1A50"/>
<path fill-rule="evenodd" clip-rule="evenodd" d="M172.893 84.2303C175.618 84.2303 177.828 82.0203 177.828 79.2946C177.828 76.5689 175.618 74.3589 172.893 74.3589C170.167 74.3589 167.957 76.5689 167.957 79.2946C167.957 82.0203 170.167 84.2303 172.893 84.2303ZM172.893 82.3149C174.513 82.3149 175.839 80.9889 175.839 79.3683C175.839 77.7476 174.513 76.4216 172.893 76.4216C171.272 76.4216 169.946 77.7476 169.946 79.3683C169.946 80.9889 171.272 82.3149 172.893 82.3149Z" fill="#0E1A50"/>
<path fill-rule="evenodd" clip-rule="evenodd" d="M146.154 84.304C148.88 84.304 151.09 82.094 151.09 79.3683C151.09 76.6426 148.88 74.4326 146.154 74.4326C143.429 74.4326 141.219 76.6426 141.219 79.3683C141.219 82.094 143.429 84.304 146.154 84.304ZM146.154 82.3149C147.775 82.3149 149.101 80.989 149.101 79.3683C149.101 77.7476 147.775 76.4216 146.154 76.4216C144.534 76.4216 143.208 77.7476 143.208 79.3683C143.208 80.989 144.534 82.3149 146.154 82.3149Z" fill="#0E1A50"/>
<path d="M145.267 68.2446L153.076 72.8119C151.897 74.6536 151.603 76.9373 152.339 79.0736L152.56 79.8103H152.487C150.35 78.7053 148.435 77.3056 146.667 75.6849L144.457 73.4013C144.162 73.1066 143.941 72.7383 143.794 72.2963C143.499 71.4859 143.573 70.5283 144.015 69.7916L144.383 69.2759C144.531 69.0549 144.604 68.9076 144.825 68.7603L145.267 68.2446Z" fill="white"/>
<path d="M165.012 65.3716L166.853 64.5612L169.8 68.2446L170.021 68.4656C170.831 69.5706 171.568 70.7492 172.157 72.0016L167.074 74.3589L166.264 70.1599L165.012 65.3716Z" fill="white"/>
</svg>
