<svg xmlns="http://www.w3.org/2000/svg" width="99" height="49"><path fill="#6AC680" fill-rule="evenodd" d="M49.5-.001c13.531 0 24.5 10.97 24.5 24.5C74 38.031 63.031 49 49.5 49S25 38.031 25 24.499c0-13.53 10.969-24.5 24.5-24.5z"></path><path fill="#DDD" fill-rule="evenodd" d="M84 22h15v1H84v-1zM84 26h15v1H84v-1zM0 22h15v1H0v-1zM0 26h15v1H0v-1z"></path><path fill="#FFF" fill-rule="evenodd" d="M62.584 33.792c-.595 1.427-2.044 2.416-3.549 2.404a3.837 3.837 0 0 1-2.689-1.072 4.123 4.123 0 0 1-1.195-2.232c-3.815 0-7.631-.002-11.446.001-.229 1.307-1.122 2.462-2.307 2.978a3.83 3.83 0 0 1-3.09 0c-1.368-.592-2.338-2.043-2.367-3.577a4.115 4.115 0 0 1 .927-2.764 3.895 3.895 0 0 1 2.255-1.356 3.805 3.805 0 0 1 2.493.363 4.008 4.008 0 0 1 1.764 1.849c.483-.38 1.06-.661 1.678-.659h8.151c.411.004.833-.032 1.231.098.384.102.718.327 1.037.561.171-.373.415-.702.669-1.018.035-.533-.045-1.069-.112-1.597-.19-1.304-.484-2.588-.8-3.865a115.567 115.567 0 0 0-1.898-6.634c-.396-1.188-.79-2.377-1.192-3.563-.364-.032-.728-.068-1.093-.1a1.426 1.426 0 0 1-1.084.52c-1.222.002-2.443.005-3.664-.001-.726.004-1.377-.658-1.38-1.409-.044-.761.583-1.478 1.322-1.499 1.241-.006 2.481 0 3.721-.003.493-.013.957.28 1.216.704.55.054 1.1.101 1.65.154a.819.819 0 0 1 .685.551c1.728 5.162 3.446 10.328 5.178 15.491a3.818 3.818 0 0 1 2.387.603 4.02 4.02 0 0 1 1.567 1.949 4.195 4.195 0 0 1-.065 3.123zm-20.993-3.099a2.182 2.182 0 0 0-2.686-.638 2.304 2.304 0 0 0-1.188 1.4 2.375 2.375 0 0 0 .201 1.859c.312.56.862.973 1.476 1.102.6.134 1.25-.006 1.749-.375.518-.374.87-.985.936-1.634a2.366 2.366 0 0 0-.488-1.714zm19.242.124a2.242 2.242 0 0 0-1.399-.938 2.183 2.183 0 0 0-1.624.314 2.333 2.333 0 0 0-1.032 1.704c-.063.57.09 1.16.42 1.622.352.501.907.843 1.501.925a2.177 2.177 0 0 0 1.63-.429c.484-.365.815-.936.894-1.549a2.368 2.368 0 0 0-.39-1.649zm-2.535 2.294c-.389-.296-.557-.856-.404-1.329.173-.605.851-.979 1.435-.789.421.122.757.508.824.956.078.447-.114.928-.475 1.185a1.148 1.148 0 0 1-1.38-.023zm-17.899.104c-.425.239-.99.164-1.34-.182-.432-.398-.495-1.137-.137-1.608a1.15 1.15 0 0 1 1.258-.431c.441.128.786.547.83 1.019.061.48-.193.982-.611 1.202z"></path></svg>