<svg width="192" height="193" viewBox="0 0 192 193" fill="none" xmlns="http://www.w3.org/2000/svg">
<path d="M103.914 173.99C146.44 173.99 180.914 139.516 180.914 96.9903C180.914 54.4644 146.44 19.9904 103.914 19.9904C61.3881 19.9904 26.9141 54.4644 26.9141 96.9903C26.9141 139.516 61.3881 173.99 103.914 173.99Z" fill="#CCE0FF"/>
<path fill-rule="evenodd" clip-rule="evenodd" d="M34.8697 127.399C35.0719 123.893 37.0273 121.129 39.3872 121.129C58.064 121.129 131.962 121.129 131.962 121.129C131.962 121.129 131.962 125.444 131.962 129.287C131.962 130.905 131.558 132.389 130.749 133.535C130.007 134.681 128.928 135.288 127.849 135.288C112.409 135.288 57.3224 135.288 39.7917 135.288C38.3758 135.288 37.0947 134.411 36.0833 132.928C35.2742 131.445 34.8022 129.422 34.8697 127.399Z" fill="#20DFCC"/>
<path fill-rule="evenodd" clip-rule="evenodd" d="M116.861 78.9202L114.164 100.092L136.212 102.047L139.314 77.6392L116.861 78.9202Z" fill="white"/>
<path fill-rule="evenodd" clip-rule="evenodd" d="M171.544 121.129V115.532C171.14 112.026 168.712 109.06 165.341 107.981C163.386 107.374 161.161 106.7 159.07 106.025C153.879 104.407 149.294 101.306 145.788 97.1927C144.978 96.2487 144.169 95.3048 143.36 94.3608C142.147 92.9449 140.461 92.1358 138.64 92.0009C136.82 91.8661 134.999 92.5403 133.651 93.754C132.235 95.1025 130.684 96.451 129.403 97.6646C127.38 99.4851 124.414 99.7548 122.189 98.2715C119.02 96.1813 114.974 93.6191 114.974 93.6191C114.974 93.6191 114.974 93.754 114.907 94.0237C114.502 96.7207 113.626 99.3503 112.142 101.643C111.063 103.328 110.659 105.351 110.929 107.374C111.603 112.229 112.816 121.129 112.816 121.129H171.544Z" fill="#E54D4D"/>
<path fill-rule="evenodd" clip-rule="evenodd" d="M64.808 122.005H55.9752C55.9752 122.005 51.0532 107.374 37.6355 105.958C30.3535 105.149 24.4201 108.318 20.442 111.285C19.0934 112.363 17.3404 112.7 15.6547 112.363C13.9691 111.959 12.5532 110.88 11.8115 109.329C11.0024 107.711 10.3281 106.43 10.3281 106.43L16.329 102.856V97.1251C16.329 97.1251 32.0392 93.147 43.0295 97.3274C63.2572 105.149 64.808 122.005 64.808 122.005Z" fill="#33353B"/>
<path d="M34.1555 151.875C47.2261 151.861 57.8103 141.253 57.7961 128.183C57.7818 115.112 47.1744 104.528 34.1039 104.542C21.0333 104.556 10.4491 115.164 10.4633 128.234C10.4776 141.305 21.085 151.889 34.1555 151.875Z" fill="black"/>
<path fill-rule="evenodd" clip-rule="evenodd" d="M34.1274 115.128C41.342 115.128 47.208 120.994 47.208 128.208C47.208 135.423 41.342 141.289 34.1274 141.289C26.9129 141.289 21.0469 135.423 21.0469 128.208C21.1143 120.994 26.9129 115.128 34.1274 115.128Z" fill="#33353B"/>
<path fill-rule="evenodd" clip-rule="evenodd" d="M27.3867 128.006C27.4541 124.163 30.6231 121.129 34.399 121.129H70.2694V135.288H34.5338C32.5785 135.288 30.758 134.546 29.4095 133.13C28.1284 131.782 27.3867 129.961 27.3867 128.006Z" fill="#20DFCC"/>
<path fill-rule="evenodd" clip-rule="evenodd" d="M91.644 96.8555L73.7088 122.747L60.1562 97.5971L72.2254 81.2802L91.644 96.8555Z" fill="white"/>
<path fill-rule="evenodd" clip-rule="evenodd" d="M52.468 89.0341L36.7578 83.9772L40.2639 77.9763L52.468 89.0341Z" fill="white"/>
<path fill-rule="evenodd" clip-rule="evenodd" d="M54.4914 87.0114L44.9844 73.5937L51.3898 70.8292L54.4914 87.0114Z" fill="white"/>
<path d="M157.921 151.875C135.603 151.875 86.6522 151.875 49.9727 151.875C63.8623 165.562 82.9437 173.99 103.981 173.99C125.017 173.99 144.031 165.562 157.921 151.875Z" fill="#EAEBF0"/>
<path d="M49.9727 151.875C56.9849 158.82 65.3457 164.348 74.6504 168.192L94.6084 151.875C94.5409 151.875 72.4254 151.875 49.9727 151.875Z" fill="#91939E"/>
<path d="M64.6055 121.129C64.6055 121.129 65.6843 124.298 66.8305 127.669C68.3813 132.254 72.6291 135.288 77.4163 135.288H170.666C173.228 130.838 175.386 126.051 177.004 121.129H64.6055Z" fill="black"/>
<path d="M49.0312 105.014C49.0312 105.014 61.3701 132.052 67.3036 144.997C69.1915 149.178 73.3719 151.807 77.9568 151.807H94.5435V145.672C94.6109 142.368 92.7905 139.266 89.9586 137.648C87.4638 136.232 86.0479 133.468 86.3176 130.568C86.7896 125.781 87.4638 118.432 88.0032 113.172C88.1381 111.622 87.6661 110.003 86.5873 108.857C85.5085 107.644 84.0251 106.969 82.4743 106.969C79.2379 106.902 75.3272 106.834 72.6302 106.767C70.7423 106.7 69.0566 105.351 68.7195 103.463C67.7081 98.6085 65.9551 89.9106 65.9551 89.9106C65.9551 89.9106 64.4717 91.7986 63.4603 92.2031C60.6285 93.3493 57.7291 93.7539 55.5041 96.5184C51.998 100.834 49.0312 105.014 49.0312 105.014Z" fill="#E54D4D"/>
<path d="M67.3046 145.065C69.1925 149.245 73.3729 151.875 77.9578 151.875H94.5445V146.413H78.6995C76.0025 146.413 73.5752 144.863 72.4964 142.435C70.1365 137.243 66.0909 128.276 64.0682 123.826C63.2591 122.073 62.7197 120.252 62.3825 118.364C61.8431 115.398 61.034 110.745 60.4946 107.981C60.2249 106.363 59.6181 104.879 58.6741 103.531C57.5279 101.845 55.9097 99.3503 54.6286 97.5298C51.527 101.44 48.9648 105.149 48.9648 105.149C48.9648 105.149 61.3711 132.052 67.3046 145.065Z" fill="white"/>
<path d="M171.542 121.129V115.6H137.155C133.716 115.6 130.345 114.925 127.109 113.712C125.018 112.903 122.726 111.959 121.108 111.352C119.894 110.88 118.613 110.61 117.332 110.61C115.579 110.61 113.017 110.543 111.398 110.543C112.073 115.33 112.882 121.129 112.882 121.129H171.542Z" fill="white"/>
<path d="M114.974 66.1094C115.379 70.2224 115.986 76.493 116.256 79.5271C116.39 80.6734 116.39 81.8196 116.256 82.9658C116.121 84.3143 115.986 85.8651 115.986 85.8651H138.304C138.304 85.8651 138.371 85.6629 138.439 85.3257C138.641 84.2469 139.248 83.303 140.057 82.6287C140.461 82.2916 140.933 81.887 141.405 81.5499C143.428 79.9317 145.046 77.9089 146.125 75.549C148.957 69.5481 154.486 57.3441 156.778 48.1742C157.183 46.6235 157.587 44.5333 158.059 42.1059C148.687 32.8012 136.955 25.9238 123.807 22.4851C120.908 34.7566 117.199 50.9387 115.446 58.2207C114.907 60.9177 114.705 63.5473 114.974 66.1094Z" fill="#121E4E"/>
<path d="M79.1707 62.3335C76.0691 65.6374 74.7881 70.3572 75.8669 74.8073C76.0017 75.2118 76.0017 75.4815 76.0017 75.4815L71.7539 81.9544L91.5096 96.9229C91.5096 96.9229 93.5998 94.0236 94.8135 92.3379C95.3529 91.5962 96.162 91.1243 97.0385 90.9894C98.1173 90.8546 99.7355 90.6523 101.151 90.45C103.444 90.1803 105.669 89.1689 107.355 87.5507C112.951 82.4264 125.694 70.5595 131.628 63.6146C134.999 59.6365 143.562 47.9719 151.721 36.6444C141.202 28.2836 128.459 22.6199 114.502 20.6646C110.591 26.0586 106.748 31.1829 104.051 34.6891C98.5219 41.7688 86.183 54.9842 79.1707 62.3335Z" fill="#1C2F7A"/>
</svg>
