<svg width="180" height="181" viewBox="0 0 180 181" fill="none" xmlns="http://www.w3.org/2000/svg">
<g clip-path="url(#clip0)">
<path fill-rule="evenodd" clip-rule="evenodd" d="M73.9609 170.575C84.2573 172.462 94.8135 172.462 105.11 170.575V118.131H74.032V170.575H73.9609Z" fill="black"/>
<path fill-rule="evenodd" clip-rule="evenodd" d="M89.5369 125.987H116.277C116.924 125.984 117.544 125.731 118.008 125.283C118.472 124.834 118.744 124.224 118.766 123.581C118.837 116.15 117.912 93.5018 104.116 86.7075C100.062 84.7258 90.3192 82.2487 89.5369 82.0364C88.7546 82.2487 79.0117 84.7258 74.9581 86.7075C61.1615 93.5018 60.237 116.15 60.3081 123.581C60.3193 124.228 60.5874 124.844 61.0538 125.295C61.5202 125.746 62.147 125.995 62.7972 125.987H89.5369Z" fill="black"/>
<path fill-rule="evenodd" clip-rule="evenodd" d="M69.7656 108.081C69.7822 106.885 70.267 105.743 71.117 104.897C71.967 104.051 73.1151 103.568 74.3171 103.552H104.826C106.028 103.568 107.176 104.051 108.026 104.897C108.876 105.743 109.361 106.885 109.377 108.081V121.458C109.361 122.654 108.876 123.796 108.026 124.642C107.176 125.488 106.028 125.971 104.826 125.987H74.3171C73.1151 125.971 71.967 125.488 71.117 124.642C70.267 123.796 69.7822 122.654 69.7656 121.458V108.081Z" fill="#33353B"/>
<path fill-rule="evenodd" clip-rule="evenodd" d="M97.4301 86.6367H81.6422L79.2243 93.2187C78.6058 94.872 78.3993 96.6498 78.6224 98.4C78.8455 100.15 79.4916 101.82 80.5053 103.267C81.5191 104.715 82.8702 105.896 84.443 106.709C86.0159 107.523 87.7635 107.945 89.5361 107.94C91.3075 107.938 93.0524 107.513 94.6241 106.7C96.1959 105.887 97.5484 104.71 98.5679 103.269C99.5862 101.823 100.235 100.153 100.458 98.4014C100.681 96.6501 100.472 94.8712 99.848 93.2187C98.4968 89.6092 97.4301 86.6367 97.4301 86.6367Z" fill="#4B4D54"/>
<path d="M160.225 75.1005H90.8867V85.7167H160.225V75.1005Z" fill="black"/>
<path fill-rule="evenodd" clip-rule="evenodd" d="M101.34 75.1005C101.34 75.1005 108.594 66.6784 113.216 61.4411C114.357 60.1438 115.77 59.1105 117.355 58.4137C118.939 57.7168 120.658 57.3732 122.39 57.407C126.017 57.5485 130.569 57.6901 133.556 57.7609C135.5 57.8248 137.415 57.2803 139.032 56.2038C141.947 54.2929 146.57 51.2496 148.348 50.1172C148.767 49.8304 149.07 49.4036 149.201 48.9141C149.201 48.7725 149.272 48.631 149.272 48.4894C149.375 47.968 149.622 47.4857 149.987 47.0977C150.352 46.7097 150.819 46.4317 151.335 46.2954C151.845 46.1324 152.389 46.1055 152.914 46.2172C153.438 46.329 153.923 46.5756 154.322 46.9324L154.393 47.0032C154.712 47.2843 154.961 47.635 155.121 48.0279C155.282 48.4207 155.349 48.8451 155.317 49.268C155.284 49.6805 155.166 50.0819 154.97 50.4471C154.774 50.8124 154.505 51.1337 154.179 51.3912L139.885 61.7242C138.388 62.7985 136.608 63.4135 134.765 63.4936C132.844 63.5643 130.426 63.7059 128.649 63.7767C128.002 63.7986 127.389 64.0688 126.938 64.5306C126.488 64.9924 126.234 65.6099 126.231 66.2538V75.1005H101.34Z" fill="black"/>
<path fill-rule="evenodd" clip-rule="evenodd" d="M89.5372 70.9248L85.5547 81.1163L89.5372 90.6H94.4442C97.8277 90.6039 101.198 90.1757 104.472 89.3261C106.107 88.9015 107.885 88.4768 109.592 87.9814C113.543 86.9726 117.603 86.4496 121.682 86.4244H129.007L129.078 74.0389C129.078 74.0389 115.068 74.1804 107.601 72.6234C101.657 71.4214 95.6019 70.8521 89.5372 70.9248Z" fill="#4B4D54"/>
<path d="M88.1119 75.1005H18.7734V85.7167H88.1119V75.1005Z" fill="black"/>
<path fill-rule="evenodd" clip-rule="evenodd" d="M77.731 75.1005C77.731 75.1005 70.4772 66.6784 65.8546 61.4411C64.7134 60.1438 63.3009 59.1105 61.7162 58.4137C60.1315 57.7168 58.4128 57.3732 56.6806 57.407C53.0536 57.5485 48.5022 57.6901 45.5153 57.7609C43.5712 57.8248 41.656 57.2803 40.0393 56.2038C37.1236 54.2929 32.501 51.2496 30.7231 50.1172C30.3035 49.8304 30.0008 49.4036 29.8697 48.9141C29.8697 48.7725 29.7986 48.631 29.7986 48.4894C29.6851 47.9728 29.4336 47.4963 29.0706 47.1102C28.7076 46.724 28.2466 46.4425 27.7362 46.2954C27.2258 46.1324 26.6815 46.1055 26.1574 46.2172C25.6332 46.329 25.1478 46.5756 24.7493 46.9324L24.6782 47.0032C24.3593 47.2843 24.1099 47.635 23.9495 48.0279C23.7892 48.4207 23.7221 48.8451 23.7537 49.268C23.7871 49.6805 23.9054 50.0819 24.1011 50.4471C24.2968 50.8124 24.5659 51.1337 24.8916 51.3912L39.1859 61.7242C40.6827 62.7985 42.4626 63.4135 44.3063 63.4936C46.2265 63.5643 48.6444 63.7059 50.4223 63.7767C51.0689 63.7986 51.6818 64.0688 52.1326 64.5306C52.5834 64.9924 52.837 65.6099 52.8403 66.2538V75.1005H77.731Z" fill="black"/>
<path fill-rule="evenodd" clip-rule="evenodd" d="M89.5368 70.9248L93.5193 81.1163L89.5368 90.6H84.6298C81.2463 90.6039 77.8764 90.1757 74.6024 89.3261C72.9667 88.9015 71.1888 88.4768 69.482 87.9814C65.5312 86.9726 61.4709 86.4496 57.3922 86.4244H50.0672L49.9961 74.0389C49.9961 74.0389 64.006 74.1804 71.4732 72.6234C77.4169 71.4214 83.4721 70.8521 89.5368 70.9248Z" fill="#4B4D54"/>
<path d="M94.2303 76.0206H84.9141V85.3628H94.2303V76.0206Z" fill="#DBDCE3"/>
<path d="M92.666 80.0547H91.457V81.2579H92.666V80.0547Z" fill="black"/>
<path d="M91.4551 77.6484H90.2461V78.8515H91.4551V77.6484Z" fill="black"/>
<path d="M91.4551 80.0547H90.2461V81.2579H91.4551V80.0547Z" fill="black"/>
<path d="M91.4551 81.2579H90.2461V82.461H91.4551V81.2579Z" fill="black"/>
<path d="M88.9668 77.6484H87.7578V78.8515H88.9668V77.6484Z" fill="black"/>
<path d="M87.7559 77.6484H86.5469V78.8515H87.7559V77.6484Z" fill="black"/>
<path d="M87.7559 78.8516H86.5469V80.0547H87.7559V78.8516Z" fill="black"/>
<path d="M88.9668 78.8516H87.7578V80.0547H88.9668V78.8516Z" fill="black"/>
<path d="M88.9668 80.0547H87.7578V81.2579H88.9668V80.0547Z" fill="black"/>
<path d="M90.1738 78.8516H88.9648V80.0547H90.1738V78.8516Z" fill="black"/>
<path d="M92.666 78.8516H91.457V80.0547H92.666V78.8516Z" fill="black"/>
<path d="M87.7559 82.5318H86.5469V83.735H87.7559V82.5318Z" fill="black"/>
<path d="M88.9668 82.5318H87.7578V83.735H88.9668V82.5318Z" fill="black"/>
<path d="M90.1738 82.5318H88.9648V83.735H90.1738V82.5318Z" fill="black"/>
<path d="M92.666 82.5318H91.457V83.735H92.666V82.5318Z" fill="black"/>
<path d="M90.1738 81.2579H88.9648V82.461H90.1738V81.2579Z" fill="black"/>
<path d="M87.7559 81.2579H86.5469V82.461H87.7559V81.2579Z" fill="black"/>
<path fill-rule="evenodd" clip-rule="evenodd" d="M126.23 87.6983V92.8648C126.235 93.8395 126.589 94.7806 127.227 95.5197C127.866 96.2588 128.748 96.7477 129.715 96.899C130.665 97.0456 131.635 96.817 132.418 96.262C133.627 95.3419 135.547 93.9972 136.613 93.2187C136.822 93.0551 136.966 92.8227 137.018 92.5632C137.07 92.3037 137.028 92.0342 136.898 91.8032C135.973 90.3877 134.338 87.6983 134.338 87.6983L130.355 85.5043L126.23 87.6983Z" fill="#33353B"/>
<path d="M134.907 72.8358H126.23V87.6983H134.907V72.8358Z" fill="black"/>
<path fill-rule="evenodd" clip-rule="evenodd" d="M44.1641 72.8357H51.5602C51.7285 72.8348 51.8954 72.8671 52.0512 72.9308C52.2069 72.9945 52.3484 73.0883 52.4674 73.2067C52.5865 73.3252 52.6808 73.466 52.7448 73.621C52.8087 73.776 52.8412 73.9421 52.8403 74.1096V87.6983H44.1641V72.8357Z" fill="black"/>
<path d="M134.268 72.8358H120.613V86.4244H134.268V72.8358Z" fill="black"/>
<path d="M58.3863 73.7558H52.1992V86.4244H58.3863V73.7558Z" fill="black"/>
<path d="M58.4594 72.8358H50.9922V86.4244H58.4594V72.8358Z" fill="black"/>
<path fill-rule="evenodd" clip-rule="evenodd" d="M143.444 74.1097C142.438 74.0968 141.437 73.9781 140.457 73.7558C139.817 73.6143 138.963 73.4019 138.323 73.1896C137.533 72.991 136.72 72.8958 135.905 72.9065H134.27V87.7691H135.905C136.72 87.7798 137.533 87.6847 138.323 87.486C138.963 87.3445 139.746 87.1321 140.457 86.9198C141.431 86.6629 142.436 86.5438 143.444 86.5659H175.446V74.1097H143.444Z" fill="#33353B"/>
<path fill-rule="evenodd" clip-rule="evenodd" d="M176.918 75.3128C176.893 74.9992 176.769 74.7015 176.562 74.4635C176.451 74.3504 176.318 74.2608 176.172 74.2C176.025 74.1392 175.867 74.1085 175.709 74.1097H173.148V86.5588H175.709C176.024 86.5346 176.323 86.4106 176.562 86.205C176.676 86.0945 176.766 85.9623 176.827 85.8164C176.888 85.6705 176.919 85.5138 176.918 85.3557V75.3128Z" fill="#DBDCE3"/>
<path fill-rule="evenodd" clip-rule="evenodd" d="M44.8037 72.8357H43.168C42.3531 72.825 41.5402 72.9202 40.7501 73.1188C40.11 73.2604 39.3277 73.4727 38.6166 73.685C37.6426 73.9419 36.6371 74.0611 35.6297 74.0389H3.76953V86.3536H35.6297C36.6351 86.3665 37.6362 86.4851 38.6166 86.7075C39.2566 86.849 40.11 87.0613 40.7501 87.2736C41.5402 87.4723 42.3531 87.5675 43.168 87.5567H44.8037V72.8357Z" fill="#33353B"/>
<path fill-rule="evenodd" clip-rule="evenodd" d="M2.33988 75.2421C2.36418 74.9284 2.4888 74.6308 2.69546 74.3928C2.80646 74.2797 2.93926 74.1901 3.0859 74.1292C3.23254 74.0684 3.39 74.0377 3.54886 74.0389H6.10905V86.4244H3.54886C3.2337 86.4002 2.93463 86.2762 2.69546 86.0705C2.58182 85.9601 2.49175 85.8279 2.43065 85.682C2.36955 85.536 2.33868 85.3793 2.33988 85.2212V75.2421Z" fill="#DBDCE3"/>
<path d="M88.6091 77.9315H86.9023V79.6301H88.6091V77.9315Z" fill="#DBDCE3"/>
<path d="M88.3262 78.2146H87.1172V79.4178H88.3262V78.2146Z" fill="black"/>
<path fill-rule="evenodd" clip-rule="evenodd" d="M125.306 141.204C124.785 138.729 123.795 136.375 122.39 134.268C119.617 130.375 114.568 126.412 112.221 115.583C111.296 111.195 108.238 105.038 108.238 105.038L130.355 62.6443C130.355 62.6443 138.889 82.4611 142.659 91.2371C143.847 93.97 144.522 96.8965 144.65 99.8715C144.863 103.764 145.077 109.214 145.219 112.682C145.311 114.748 145.549 116.806 145.93 118.839L148.277 130.871C141.61 136.174 133.711 139.727 125.306 141.204Z" fill="#965941"/>
<path fill-rule="evenodd" clip-rule="evenodd" d="M113.148 79.8424C113.56 79.0707 113.732 78.1948 113.644 77.3255C113.555 76.4562 113.209 75.6327 112.65 74.959C112.103 74.2752 111.369 73.7641 110.535 73.4878C109.702 73.2114 108.806 73.1816 107.957 73.4019C103.547 74.5343 98.7114 75.8083 95.7956 76.516C95.0533 76.6989 94.4132 77.1653 94.014 77.8144C93.6147 78.4634 93.4883 79.2428 93.6621 79.9839C93.8056 80.6468 94.1735 81.2406 94.7043 81.6657C95.2351 82.0909 95.8965 82.3217 96.5779 82.3195H109.165C109.995 82.3154 110.807 82.0815 111.51 81.6439C112.214 81.2064 112.781 80.5826 113.148 79.8424Z" fill="#965941"/>
<path fill-rule="evenodd" clip-rule="evenodd" d="M110.16 92.7233C110.249 92.047 110.172 91.3594 109.937 90.7188C109.701 90.0782 109.315 89.5034 108.809 89.043C108.293 88.5888 107.674 88.2674 107.004 88.107C106.334 87.9466 105.636 87.9521 104.969 88.123C101.057 89.1846 96.2925 90.4585 93.519 91.1663C92.8722 91.3238 92.2998 91.6984 91.8982 92.227C91.4966 92.7556 91.2904 93.4058 91.3144 94.068C91.3097 94.501 91.4032 94.9295 91.5879 95.3216C91.7725 95.7137 92.0437 96.0594 92.3811 96.3328C92.6993 96.6134 93.0712 96.8271 93.4746 96.9609C93.8779 97.0947 94.3042 97.1458 94.728 97.1113C98.2127 96.7574 103.475 96.262 106.818 95.9081C107.656 95.8348 108.444 95.4793 109.051 94.9003C109.659 94.3213 110.05 93.5534 110.16 92.7233Z" fill="#965941"/>
<path fill-rule="evenodd" clip-rule="evenodd" d="M108.098 100.933C108.128 100.349 108.014 99.7665 107.766 99.2361C107.518 98.7058 107.144 98.2437 106.676 97.8898C106.232 97.5099 105.704 97.241 105.135 97.1056C104.566 96.9701 103.973 96.9721 103.405 97.1113C100.702 97.6775 97.4307 98.3852 95.2261 98.8806C94.5278 99.02 93.9099 99.4207 93.4997 100C93.0895 100.579 92.9184 101.293 93.0215 101.995C93.0923 102.695 93.4229 103.345 93.949 103.816C94.475 104.287 95.1585 104.546 95.8662 104.543C98.2841 104.543 101.84 104.472 104.471 104.472C105.41 104.436 106.301 104.054 106.972 103.4C107.642 102.746 108.044 101.866 108.098 100.933Z" fill="#965941"/>
<path fill-rule="evenodd" clip-rule="evenodd" d="M133.13 55.0006C133.116 53.9493 132.71 52.9406 131.992 52.1697C131.622 51.795 131.179 51.5009 130.689 51.3059C130.199 51.111 129.674 51.0195 129.147 51.0373C122.604 51.0373 109.732 51.0373 103.261 50.9665C102.204 50.9805 101.191 51.384 100.416 52.0989C100.04 52.4665 99.744 52.908 99.5481 53.3953C99.3522 53.8827 99.2603 54.4053 99.2781 54.9298C99.2781 65.8291 99.207 96.3327 99.207 107.232C99.2211 108.283 99.6265 109.292 100.345 110.063C100.714 110.438 101.158 110.732 101.648 110.927C102.137 111.122 102.662 111.213 103.19 111.195C109.732 111.195 122.604 111.195 129.076 111.266C130.132 111.252 131.146 110.849 131.921 110.134C132.297 109.766 132.593 109.325 132.788 108.837C132.984 108.35 133.076 107.827 133.058 107.303C133.058 96.4035 133.13 65.9706 133.13 55.0006Z" fill="black"/>
<path d="M101.234 55.0855V101.938H130.605V55.0855H101.234Z" fill="white"/>
<path fill-rule="evenodd" clip-rule="evenodd" d="M101.41 102.066L130.781 102.136V93.0772L101.41 93.0064V102.066Z" fill="#CCCED8"/>
<path fill-rule="evenodd" clip-rule="evenodd" d="M101.484 64.272L130.855 64.3428V55.2837L101.484 55.213V64.272Z" fill="#CCCED8"/>
<path opacity="0.67" fill-rule="evenodd" clip-rule="evenodd" d="M116.205 52.4527C116.345 52.4527 116.483 52.4943 116.6 52.572C116.717 52.6498 116.808 52.7603 116.862 52.8896C116.916 53.019 116.93 53.1613 116.902 53.2986C116.875 53.4358 116.807 53.562 116.708 53.6609C116.608 53.7599 116.481 53.8273 116.344 53.8546C116.206 53.8819 116.063 53.8679 115.933 53.8144C115.803 53.7608 115.692 53.6701 115.613 53.5537C115.535 53.4373 115.494 53.3005 115.494 53.1605C115.487 53.0659 115.501 52.9711 115.535 52.8824C115.568 52.7937 115.621 52.7132 115.688 52.6461C115.755 52.5791 115.836 52.5272 115.925 52.4939C116.015 52.4605 116.11 52.4465 116.205 52.4527Z" fill="#9597A0"/>
<path opacity="0.67" fill-rule="evenodd" clip-rule="evenodd" d="M116.132 104.189C116.568 104.189 116.994 104.317 117.356 104.558C117.719 104.8 118.002 105.142 118.168 105.543C118.335 105.944 118.379 106.385 118.294 106.811C118.209 107.236 117.999 107.627 117.691 107.934C117.382 108.241 116.989 108.45 116.562 108.535C116.134 108.619 115.691 108.576 115.288 108.41C114.885 108.244 114.541 107.962 114.299 107.602C114.056 107.241 113.927 106.817 113.927 106.383C113.917 106.092 113.967 105.802 114.075 105.532C114.182 105.261 114.344 105.015 114.551 104.809C114.757 104.604 115.004 104.442 115.276 104.336C115.548 104.229 115.839 104.179 116.132 104.189Z" fill="#9597A0"/>
<path d="M105.102 87.0967V89.22H107.235V87.0967H105.102Z" fill="black"/>
<path d="M105.152 82.822V84.9452H107.286V82.822H105.152Z" fill="black"/>
<path d="M109.426 84.9381V87.0613H111.559V84.9381H109.426Z" fill="black"/>
<path d="M111.602 82.7724V84.8956H115.94V82.7724H111.602Z" fill="black"/>
<path d="M115.918 87.0967V89.22H120.256V87.0967H115.918Z" fill="black"/>
<path d="M111.617 87.1038V89.2271H113.751V87.1038H111.617Z" fill="black"/>
<path d="M111.574 78.5543V80.6775H113.708V78.5543H111.574Z" fill="black"/>
<path fill-rule="evenodd" clip-rule="evenodd" d="M114.001 82.9564V78.6392H111.868L111.797 85.0797H114.001V87.2737H116.135V82.9564H114.001Z" fill="black"/>
<path d="M124.785 72.2483L124.777 76.5655L126.911 76.5692L126.918 72.252L124.785 72.2483Z" fill="black"/>
<path d="M116.156 74.3539L116.148 78.6711L118.282 78.6748L118.29 74.3576L116.156 74.3539Z" fill="black"/>
<path d="M115.926 74.2583V76.3815H118.059V74.2583H115.926Z" fill="black"/>
<path d="M112.449 72.0855V74.2087H115.934V72.0855H112.449Z" fill="black"/>
<path d="M118.098 72.0784V74.2017H120.231V72.0784H118.098Z" fill="black"/>
<path fill-rule="evenodd" clip-rule="evenodd" d="M122.606 76.516V74.3928H120.473V78.71H124.74V76.516H122.606Z" fill="black"/>
<path fill-rule="evenodd" clip-rule="evenodd" d="M120.471 67.9523H116.133V72.1988L118.337 72.2696V70.0756H120.471V67.9523Z" fill="black"/>
<path fill-rule="evenodd" clip-rule="evenodd" d="M124.811 72.2696V67.9523H122.606V70.0756H120.473V72.2696H122.606H124.811Z" fill="black"/>
<path d="M107.277 78.4977V80.6209H109.411V78.4977H107.277Z" fill="black"/>
<path fill-rule="evenodd" clip-rule="evenodd" d="M107.529 82.9564V80.8332L105.395 80.7625L105.324 89.3969H109.662V87.2737L107.529 87.2029V85.0797H109.662V82.9564H107.529Z" fill="black"/>
<path fill-rule="evenodd" clip-rule="evenodd" d="M126.871 89.3969L126.943 78.71H124.738V80.8332H120.471V78.71L118.266 78.6392V80.8332H116.133V82.9564H118.266V89.3969H126.871Z" fill="black"/>
<path d="M120.001 82.484L119.992 87.6505L125.184 87.6595L125.193 82.493L120.001 82.484Z" fill="white"/>
<path d="M121.706 84.2564L121.703 85.955L123.41 85.958L123.413 84.2594L121.706 84.2564Z" fill="black"/>
<path fill-rule="evenodd" clip-rule="evenodd" d="M109.662 76.516V78.6392H111.866V76.516H114V67.9523H105.395V78.6392H107.528V76.516H109.662Z" fill="black"/>
<path d="M106.461 69.0493V75.0651H112.506V69.0493H106.461Z" fill="white"/>
<path d="M107.967 70.4739L107.961 73.9418L111.446 73.9479L111.452 70.48L107.967 70.4739Z" fill="black"/>
<path fill-rule="evenodd" clip-rule="evenodd" d="M136.687 120.325C137.737 119.801 138.665 119.065 139.412 118.163C140.159 117.261 140.708 116.214 141.025 115.088C141.347 113.968 141.437 112.795 141.291 111.639C141.144 110.483 140.763 109.369 140.171 108.364C137.825 104.472 135.051 99.8007 133.06 96.4743C131.233 93.4343 128.815 90.7876 125.948 88.6892C124.028 87.2737 121.895 85.7167 120.188 84.5135C119.852 84.2748 119.468 84.1129 119.062 84.0395C118.656 83.9661 118.239 83.9829 117.841 84.0888C117.438 84.2053 117.069 84.4129 116.76 84.6952C116.452 84.9776 116.213 85.3272 116.063 85.7167C115.671 86.7431 115.544 87.8509 115.693 88.9388C115.842 90.0267 116.263 91.0601 116.916 91.9448C117.983 93.431 119.334 95.2004 120.472 96.6866C122.194 99.0087 123.162 101.799 123.246 104.684C123.246 105.675 123.317 106.807 123.317 107.869C123.381 111.141 124.107 114.366 125.45 117.353C125.868 118.262 126.468 119.077 127.214 119.746C127.961 120.416 128.837 120.926 129.788 121.245C131.706 121.876 133.794 121.749 135.62 120.891C135.991 120.733 136.348 120.543 136.687 120.325Z" fill="#965941"/>
<path fill-rule="evenodd" clip-rule="evenodd" d="M156.812 136.886L146.429 121.528L118.195 137.311L132.347 159.888C142.018 153.994 150.35 146.161 156.812 136.886Z" fill="#0050FF"/>
</g>
<defs>
<clipPath id="clip0">
<rect width="179" height="163" fill="white" transform="translate(0 8.99036)"/>
</clipPath>
</defs>
</svg>
