<svg width="196" height="196" viewBox="0 0 196 196" fill="none" xmlns="http://www.w3.org/2000/svg">
<path d="M97.4996 182.974C144.045 182.974 181.777 145.242 181.777 98.6974C181.777 52.1525 144.045 14.4204 97.4996 14.4204C50.9548 14.4204 13.2227 52.1525 13.2227 98.6974C13.2227 145.242 50.9548 182.974 97.4996 182.974Z" fill="#DBDCE3"/>
<path fill-rule="evenodd" clip-rule="evenodd" d="M41.7656 35.4364L181.494 105.3C181.636 103.099 181.778 100.898 181.778 98.6264C181.778 52.1924 144.006 14.4204 97.5006 14.4204C76.1296 14.4204 56.6046 22.3724 41.7656 35.4364Z" fill="#037369"/>
<path fill-rule="evenodd" clip-rule="evenodd" d="M85.2886 15.2725C68.7456 17.6865 53.7646 24.9285 41.7656 35.4365L181.494 105.3C181.636 103.099 181.778 100.898 181.778 98.6265C181.778 84.0715 178.086 70.2975 171.554 58.3695L85.2886 15.2725Z" fill="#DBDCE3"/>
<path fill-rule="evenodd" clip-rule="evenodd" d="M47.0906 31.1055C45.2446 32.4545 43.4696 33.9455 41.7656 35.4365L181.494 105.3C181.636 103.099 181.778 100.898 181.778 98.6265V98.4135L47.0906 31.1055Z" fill="#91939E"/>
<path fill-rule="evenodd" clip-rule="evenodd" d="M15.5664 78.8884C15.0694 80.8764 14.6434 82.9354 14.3594 84.9944L77.6204 53.3994L72.1534 50.6304L15.5664 78.8884Z" fill="white"/>
<path fill-rule="evenodd" clip-rule="evenodd" d="M178.084 123.476C177.374 125.748 176.593 127.949 175.741 130.15L93.0973 171.472L59.6562 154.787L65.1233 152.018L93.0973 166.005L178.084 123.476Z" fill="white"/>
<path fill-rule="evenodd" clip-rule="evenodd" d="M146.561 167.212L143.863 128.943L133.71 127.381L97.2162 145.628C97.2162 145.628 97.0742 146.267 96.9322 147.119C96.5062 149.178 95.1572 150.953 93.2402 151.947C92.9562 152.089 92.6012 152.302 92.2462 152.444C89.6902 153.722 86.7792 153.722 84.2232 152.515C82.4482 151.663 80.4602 150.74 78.9692 150.03C78.4722 149.817 78.1172 149.32 78.1172 148.752C78.1172 148.184 78.4012 147.687 78.8982 147.403L134.349 117.654C134.775 117.299 135.272 117.015 135.84 116.66C136.337 116.376 136.905 116.163 137.544 115.95L137.828 115.808C139.035 115.169 140.384 114.885 141.662 115.027C144.786 114.672 147.981 115.098 150.253 116.234C154.087 118.151 153.945 121.488 149.827 123.689C149.259 123.973 148.691 124.257 148.052 124.47L150.466 164.301C149.117 165.295 147.839 166.289 146.561 167.212Z" fill="#91939E"/>
<path fill-rule="evenodd" clip-rule="evenodd" d="M99.9857 94.2244C103.11 93.8694 106.305 94.2954 108.577 95.4314C112.411 97.3484 112.269 100.685 108.151 102.886C107.583 103.17 107.015 103.454 106.376 103.667L108.506 138.528L104.53 138.812L102.258 108.14L92.1047 106.578L55.6107 124.825C55.6107 124.825 55.4687 125.464 55.3267 126.316C54.9007 128.375 53.5517 130.15 51.6347 131.144C51.3507 131.286 50.9957 131.499 50.6407 131.641C48.0847 132.919 45.1737 132.919 42.6177 131.712C40.8427 130.86 38.8547 129.937 37.3637 129.227C36.8667 129.014 36.5117 128.517 36.5117 127.949C36.5117 127.381 36.7957 126.884 37.2927 126.6L92.7437 96.8514C93.1697 96.4964 93.6667 96.2124 94.2347 95.8574C94.7317 95.5734 95.2997 95.3604 95.9387 95.1474L96.2227 95.0054C97.2877 94.3664 98.6367 94.0824 99.9857 94.2244Z" fill="#91939E"/>
<path fill-rule="evenodd" clip-rule="evenodd" d="M120.221 115.169C120.079 115.098 119.866 115.098 119.724 115.169C116.6 116.731 87.2057 131.428 81.2417 134.41C81.0287 134.481 80.8867 134.694 80.8867 134.907C80.8867 135.12 81.0287 135.333 81.2417 135.404C83.8687 136.753 90.5427 140.09 90.5427 140.09L130.303 120.21C130.303 120.21 121.854 115.95 120.221 115.169Z" fill="#383B45"/>
<path fill-rule="evenodd" clip-rule="evenodd" d="M83.7243 134.836C79.8193 136.753 76.6953 141.723 76.6953 145.77C76.6953 149.888 79.8903 151.592 83.7243 149.675C87.6293 147.758 90.7533 142.788 90.7533 138.741C90.7533 134.623 87.6293 132.919 83.7243 134.836Z" fill="black"/>
<path fill-rule="evenodd" clip-rule="evenodd" d="M82.0212 133.985C78.1162 135.902 74.9922 140.872 74.9922 144.919C74.9922 149.037 78.1872 150.741 82.0212 148.824C85.9262 146.907 89.0502 141.937 89.0502 137.89C89.0502 133.772 85.9262 131.997 82.0212 133.985Z" fill="black"/>
<path fill-rule="evenodd" clip-rule="evenodd" d="M76.9805 137.605L78.8975 138.528V150.03L76.9805 149.107V137.605Z" fill="black"/>
<path opacity="0.5717" d="M86.4561 144.358C87.8339 142.403 87.9634 140.122 86.7454 139.264C85.5275 138.405 83.4232 139.295 82.0454 141.25C80.6677 143.205 80.5381 145.486 81.7561 146.344C82.9741 147.202 85.0784 146.313 86.4561 144.358Z" fill="#383B45"/>
<path fill-rule="evenodd" clip-rule="evenodd" d="M86.7782 142.007C85.8552 142.504 85.0742 143.64 85.0742 144.634C85.0742 145.628 85.8552 146.054 86.7782 145.557C87.7012 145.06 88.4822 143.924 88.4822 142.93C88.4822 141.936 87.7012 141.51 86.7782 142.007Z" fill="#20DFCC"/>
<path fill-rule="evenodd" clip-rule="evenodd" d="M132.502 121.062C132.502 122.056 131.934 122.979 131.011 123.405C123.201 127.31 86.707 145.557 86.707 145.557V142.007L130.585 120.068L131.153 118.435C131.153 118.435 131.721 118.719 132.076 118.932C132.289 119.074 132.431 119.287 132.431 119.5C132.502 119.926 132.502 120.494 132.502 121.062Z" fill="#20DFCC"/>
<path fill-rule="evenodd" clip-rule="evenodd" d="M127.533 125.18L94.3756 141.723L90.6836 140.019L129.166 120.778L127.533 125.18Z" fill="black"/>
<path fill-rule="evenodd" clip-rule="evenodd" d="M112.906 119.642C112.693 119.571 112.551 119.358 112.551 119.145C112.551 118.932 112.693 118.719 112.906 118.648C114.894 117.654 119.154 115.524 121.142 114.53C121.781 114.175 122.562 114.175 123.201 114.53C125.189 115.524 129.52 117.654 131.508 118.648C131.721 118.719 131.863 118.932 131.863 119.145C131.863 119.358 131.721 119.571 131.508 119.642C128.881 120.92 122.278 124.257 122.278 124.257C122.278 124.257 115.533 120.92 112.906 119.642Z" fill="#383B45"/>
<path fill-rule="evenodd" clip-rule="evenodd" d="M138.679 102.886C134.49 105.016 131.082 110.27 131.082 114.672C131.082 119.074 134.49 120.991 138.679 118.861C142.868 116.731 146.276 111.477 146.276 107.075C146.276 105.726 145.992 104.661 145.424 103.809C144.146 101.892 141.661 101.395 138.679 102.886Z" fill="black"/>
<path fill-rule="evenodd" clip-rule="evenodd" d="M133.426 109.631L134.917 110.412V119.997L133.426 119.216V109.631Z" fill="black"/>
<path fill-rule="evenodd" clip-rule="evenodd" d="M143.934 102.46L145.496 103.241V112.826L143.934 112.116V102.46Z" fill="black"/>
<path fill-rule="evenodd" clip-rule="evenodd" d="M140.312 103.667C136.123 105.797 132.715 111.051 132.715 115.453C132.715 119.855 136.123 121.772 140.312 119.642C144.501 117.512 147.909 112.258 147.909 107.856C147.909 103.454 144.501 101.537 140.312 103.667Z" fill="black"/>
<path opacity="0.5717" fill-rule="evenodd" clip-rule="evenodd" d="M140.312 107.43C138.111 108.566 136.336 111.335 136.336 113.678C136.336 116.021 138.111 117.015 140.312 115.879C142.513 114.743 144.288 111.974 144.288 109.631C144.288 107.359 142.513 106.365 140.312 107.43Z" fill="#383B45"/>
<path fill-rule="evenodd" clip-rule="evenodd" d="M123.061 114.388C122.493 114.104 121.783 114.104 121.144 114.388C118.091 115.95 108.719 120.636 108.719 120.636C108.719 120.636 125.404 119.429 126.966 119.358C127.037 119.358 127.108 119.358 127.179 119.287C127.676 119.003 129.948 117.867 129.948 117.867C129.948 117.867 125.191 115.453 123.061 114.388Z" fill="black"/>
<path fill-rule="evenodd" clip-rule="evenodd" d="M106.872 37.5664L141.449 54.8904C141.733 55.0324 142.088 54.9614 142.443 54.7484C143.295 54.3224 144.005 53.2574 144.005 52.3344C144.005 51.8374 143.792 51.4824 143.508 51.4114L109.073 34.1584C108.789 34.0164 108.363 34.0164 107.937 34.2294C107.085 34.6554 106.375 35.7204 106.375 36.6434C106.375 37.0694 106.517 37.3534 106.872 37.5664Z" fill="black"/>
<path d="M134.988 92.5204L140.242 111.548" stroke="black" stroke-width="2.2196" stroke-miterlimit="10" stroke-linecap="round" stroke-linejoin="round"/>
<path fill-rule="evenodd" clip-rule="evenodd" d="M135.201 47.2224L116.599 37.9214L114.469 41.3294L133.142 50.7014L135.201 47.2224Z" fill="#383B45"/>
<path fill-rule="evenodd" clip-rule="evenodd" d="M122.703 116.731L132.075 90.3195L134.347 91.1005L135.27 96.9935L130.016 117.867L127.105 119.287L122.703 116.731Z" fill="#20DFCC"/>
<path fill-rule="evenodd" clip-rule="evenodd" d="M127.179 119.358L134.35 91.1004L131.51 89.3254L121.57 116.447L127.179 119.358Z" fill="#383B45"/>
<path fill-rule="evenodd" clip-rule="evenodd" d="M96.2935 135.049L90.8265 137.676C90.2585 136.327 89.1934 135.262 87.8444 134.765C86.4954 134.197 85.0044 134.268 83.6554 134.907C83.5844 134.978 83.4425 134.978 83.3715 135.049C81.5965 135.83 80.0344 137.037 78.7564 138.528C78.6144 138.741 78.4015 138.883 78.2595 139.096C77.8335 139.664 77.0525 139.806 76.4135 139.451C75.8455 139.167 75.1355 138.812 74.6385 138.599C74.2835 138.386 74.0704 137.96 74.2124 137.534C74.4254 136.824 74.7095 135.83 74.7095 135.83C74.7095 135.83 74.7804 134.623 74.7804 133.842C74.7804 133.416 75.0645 132.99 75.4195 132.848C76.4845 132.351 78.6144 131.286 80.6024 130.292C83.7264 128.73 87.4185 129.085 90.2585 131.073C93.2405 132.919 96.2935 135.049 96.2935 135.049Z" fill="#383B45"/>
<path fill-rule="evenodd" clip-rule="evenodd" d="M75.6328 134.268L77.9758 135.475V136.895L75.6328 135.688V134.268Z" fill="#FF6E00"/>
<path fill-rule="evenodd" clip-rule="evenodd" d="M76.2012 93.1595C76.0592 93.0885 75.8462 93.0885 75.7042 93.1595C72.5802 94.7215 43.1862 109.418 37.2222 112.4C37.0092 112.471 36.8672 112.684 36.8672 112.897C36.8672 113.11 37.0092 113.323 37.2222 113.394C39.8492 114.743 46.5232 118.08 46.5232 118.08L86.2832 98.2005C86.3542 98.2005 77.8342 93.9405 76.2012 93.1595Z" fill="#383B45"/>
<path fill-rule="evenodd" clip-rule="evenodd" d="M39.7048 112.826C35.7998 114.743 32.6758 119.713 32.6758 123.76C32.6758 127.878 35.8708 129.582 39.7048 127.665C43.6098 125.748 46.7338 120.778 46.7338 116.731C46.8048 112.613 43.6098 110.909 39.7048 112.826Z" fill="black"/>
<path fill-rule="evenodd" clip-rule="evenodd" d="M38.0017 111.974C34.0967 113.891 30.9727 118.79 30.9727 122.908C30.9727 127.026 34.1677 128.73 38.0017 126.813C41.9067 124.896 45.0307 119.926 45.0307 115.879C45.1017 111.761 41.9067 110.057 38.0017 111.974Z" fill="black"/>
<path fill-rule="evenodd" clip-rule="evenodd" d="M32.9609 115.595L34.8779 116.589V128.091L32.9609 127.097V115.595Z" fill="black"/>
<path opacity="0.5717" fill-rule="evenodd" clip-rule="evenodd" d="M40.2745 117.299C38.4285 118.222 36.9375 120.494 36.9375 122.482C36.9375 124.399 38.4285 125.251 40.2745 124.328C42.1205 123.405 43.6115 121.133 43.6115 119.145C43.6115 117.157 42.1205 116.376 40.2745 117.299Z" fill="#383B45"/>
<path fill-rule="evenodd" clip-rule="evenodd" d="M42.7587 119.997C41.8357 120.494 41.0547 121.63 41.0547 122.624C41.0547 123.618 41.8357 124.044 42.7587 123.547C43.6817 123.05 44.4627 121.914 44.4627 120.92C44.4627 119.926 43.6817 119.5 42.7587 119.997Z" fill="#20DFCC"/>
<path fill-rule="evenodd" clip-rule="evenodd" d="M88.4825 99.0524C88.4825 100.046 87.9145 100.969 86.9915 101.395C79.1815 105.3 42.6875 123.547 42.6875 123.547V119.997L86.5655 98.0584L87.1335 96.4254C87.1335 96.4254 87.7015 96.7094 88.0565 96.9224C88.2695 97.0644 88.4115 97.2774 88.4115 97.4904C88.4825 97.9164 88.4825 98.4844 88.4825 99.0524Z" fill="#20DFCC"/>
<path fill-rule="evenodd" clip-rule="evenodd" d="M83.5131 103.17L50.3561 119.713L46.6641 118.009L85.2171 98.7684L83.5131 103.17Z" fill="black"/>
<path fill-rule="evenodd" clip-rule="evenodd" d="M68.8863 97.6324C68.6733 97.5614 68.5312 97.3484 68.5312 97.1354C68.5312 96.9224 68.6733 96.7094 68.8863 96.6384C70.8743 95.6444 75.1343 93.5144 77.1223 92.5204C77.7613 92.1654 78.5423 92.1654 79.1813 92.5204C81.1693 93.5144 85.5002 95.6444 87.4882 96.6384C87.7012 96.7094 87.8432 96.9224 87.8432 97.1354C87.8432 97.3484 87.7012 97.5614 87.4882 97.6324C84.8612 98.9104 78.2583 102.247 78.2583 102.247C78.2583 102.247 71.5133 98.9104 68.8863 97.6324Z" fill="#383B45"/>
<path fill-rule="evenodd" clip-rule="evenodd" d="M94.7298 80.8765C90.5408 83.0065 87.1328 88.2605 87.1328 92.6625C87.1328 97.0645 90.5408 98.9815 94.7298 96.8515C98.9188 94.7215 102.327 89.4675 102.327 85.0655C102.327 83.7165 102.043 82.6515 101.475 81.7995C100.197 79.8825 97.6408 79.3855 94.7298 80.8765Z" fill="black"/>
<path fill-rule="evenodd" clip-rule="evenodd" d="M89.4062 87.6215L90.9682 88.4025V98.0585L89.4062 97.2775V87.6215Z" fill="black"/>
<path fill-rule="evenodd" clip-rule="evenodd" d="M99.9141 80.4504L101.476 81.2314V90.8874L99.9141 90.0354V80.4504Z" fill="black"/>
<path d="M101.293 93.2062C104.456 88.7189 104.784 83.5066 102.028 81.5641C99.2714 79.6217 94.4735 81.6848 91.3114 86.172C88.1493 90.6593 87.8205 95.8716 90.577 97.8141C93.3335 99.7565 98.1314 97.6934 101.293 93.2062Z" fill="black"/>
<path opacity="0.5717" d="M98.9136 91.5282C100.585 89.1564 100.771 86.4097 99.3283 85.3933C97.8859 84.3769 95.3618 85.4757 93.6904 87.8476C92.019 90.2194 91.8333 92.9662 93.2757 93.9825C94.718 94.9989 97.2422 93.9001 98.9136 91.5282Z" fill="#383B45"/>
<path fill-rule="evenodd" clip-rule="evenodd" d="M79.1115 92.3784C78.5435 92.0944 77.8335 92.0944 77.1945 92.3784C74.1415 93.9404 64.7695 98.6264 64.7695 98.6264C64.7695 98.6264 81.4545 97.4194 83.0165 97.3484C83.0875 97.3484 83.1585 97.3484 83.2295 97.2774C83.7265 96.9934 85.9985 95.8574 85.9985 95.8574C85.9985 95.8574 81.1705 93.4434 79.1115 92.3784Z" fill="black"/>
<path d="M90.9688 70.5104L96.2937 89.6094" stroke="black" stroke-width="2.2196" stroke-miterlimit="10" stroke-linecap="round" stroke-linejoin="round"/>
<path fill-rule="evenodd" clip-rule="evenodd" d="M62.8525 15.5564L97.4295 32.8804C97.7135 33.0224 98.0685 32.9514 98.4235 32.7384C99.2755 32.3124 99.9855 31.2474 99.9855 30.3244C99.9855 29.8274 99.7725 29.4724 99.4885 29.4014L65.0535 12.1484C64.7695 12.0064 64.3435 12.0064 63.9175 12.2194C63.0655 12.6454 62.3555 13.7104 62.3555 14.6334C62.3555 15.0594 62.5685 15.4144 62.8525 15.5564Z" fill="black"/>
<path d="M138.964 98.5554L134.704 83.2194L124.409 46.2994C124.054 45.0924 122.847 44.4534 121.711 44.7374C120.504 45.0924 119.865 46.2994 120.149 47.4354L130.302 83.8584L134.704 99.6914C134.988 100.685 135.84 101.324 136.834 101.324C137.047 101.324 137.26 101.324 137.402 101.253C138.609 100.969 139.248 99.6914 138.964 98.5554Z" fill="#20DFCC"/>
<path d="M90.6844 61.2094L80.3894 24.2894C80.0344 23.0824 78.8274 22.4434 77.6914 22.7274C76.4844 23.0824 75.8454 24.2894 76.1294 25.4254L86.2824 61.8484L90.6844 77.6814C90.9684 78.6754 91.8204 79.3144 92.8144 79.3144C93.0274 79.3144 93.2404 79.3144 93.3824 79.2434C94.5894 78.8884 95.2284 77.6814 94.9444 76.5454L90.6844 61.2094Z" fill="#20DFCC"/>
<path fill-rule="evenodd" clip-rule="evenodd" d="M82.5168 30.3954L82.4458 23.2954L76.9788 20.3844C76.9788 20.3844 76.4108 21.3074 75.9138 22.1594C75.4878 22.9404 75.3458 23.7924 75.5588 24.6444C76.1268 26.8454 77.2628 30.8924 77.2628 30.8924C77.3338 31.1764 77.5468 31.3894 77.9018 31.6024C78.8958 32.0994 80.5288 32.0284 81.5938 31.5314C82.3038 31.2474 82.5878 30.8214 82.5168 30.3954Z" fill="#383B45"/>
<path fill-rule="evenodd" clip-rule="evenodd" d="M91.1812 25.2124L72.5792 15.9114L70.4492 19.3194L89.1222 28.6914L91.1812 25.2124Z" fill="#383B45"/>
<path opacity="0.5479" fill-rule="evenodd" clip-rule="evenodd" d="M79.891 21.4494C80.814 21.8044 81.098 22.9404 80.459 23.8634C79.82 24.7864 78.613 25.2834 77.69 24.8574C76.767 24.5024 76.483 23.3664 77.122 22.4434C77.69 21.5204 78.968 21.0234 79.891 21.4494Z" fill="#9597A0"/>
<path fill-rule="evenodd" clip-rule="evenodd" d="M90.1167 25.2835C89.2647 25.7095 88.5547 26.7745 88.5547 27.6975C88.5547 28.6205 89.2647 28.9755 90.1167 28.5495C90.9687 28.1235 91.6787 27.0585 91.6787 26.1355C91.6787 25.2835 90.9687 24.8575 90.1167 25.2835Z" fill="black"/>
<path fill-rule="evenodd" clip-rule="evenodd" d="M71.23 15.8405C70.378 16.2665 69.668 17.3315 69.668 18.2545C69.668 19.1775 70.378 19.5325 71.23 19.1065C72.082 18.6805 72.792 17.6155 72.792 16.6925C72.792 15.8405 72.082 15.4145 71.23 15.8405Z" fill="#383B45"/>
<path fill-rule="evenodd" clip-rule="evenodd" d="M78.7539 94.7924L88.1259 68.3094L90.3269 69.0904L91.3209 74.9834L85.9959 95.8574L83.0849 97.2774L78.7539 94.7924Z" fill="#20DFCC"/>
<path fill-rule="evenodd" clip-rule="evenodd" d="M83.1559 97.3484L90.3269 69.0904L87.5579 67.3154L77.5469 94.4374L83.1559 97.3484Z" fill="#383B45"/>
<path fill-rule="evenodd" clip-rule="evenodd" d="M52.2739 113.039L46.8069 115.666C46.2389 114.317 45.1739 113.252 43.8249 112.755C42.4759 112.258 40.9849 112.258 39.6359 112.897C39.5649 112.968 39.4229 112.968 39.3519 113.039C37.5769 113.82 36.0149 115.027 34.7369 116.518C34.5949 116.731 34.3819 116.873 34.2399 117.086C33.8139 117.654 33.0329 117.796 32.3939 117.441C31.8259 117.157 31.1159 116.802 30.6189 116.589C30.2639 116.376 30.0509 115.95 30.1929 115.524C30.4059 114.814 30.6899 113.82 30.6899 113.82C30.6899 113.82 30.7609 112.613 30.7609 111.832C30.7609 111.406 31.0449 110.98 31.3999 110.838C32.4649 110.341 34.5949 109.276 36.5829 108.282C39.7069 106.72 43.3989 107.075 46.2389 109.063C49.2919 110.909 52.2739 113.039 52.2739 113.039Z" fill="#383B45"/>
<path fill-rule="evenodd" clip-rule="evenodd" d="M31.6133 112.258L34.0273 113.465V114.885L31.6133 113.678V112.258Z" fill="#FF6E00"/>
<path fill-rule="evenodd" clip-rule="evenodd" d="M38.6392 64.5464H38.5682C26.9242 64.5464 17.4102 55.1034 17.4102 43.3884C17.4102 31.6734 26.9242 22.3014 38.5682 22.3014C50.2122 22.3014 59.7262 31.7444 59.7262 43.4594C59.7262 43.7434 59.7262 44.0274 59.7262 44.2404V56.6654C59.7262 59.7894 61.2882 62.7714 63.8442 64.5464H38.6392Z" fill="#0050FF"/>
<path d="M43.5046 38.7226C43.5046 37.7534 43.2475 37.0623 42.7334 36.6493C42.2277 36.2363 41.5155 36.0298 40.5968 36.0298H36.9684V41.5166H40.5968C41.5155 41.5166 42.2277 41.2933 42.7334 40.8466C43.2475 40.3999 43.5046 39.6919 43.5046 38.7226ZM47.3605 38.6973C47.3605 40.8971 46.8043 42.4522 45.6917 43.3624C44.5792 44.2727 42.9904 44.7278 40.9255 44.7278H36.9684V51.4283H33.0998V32.7933H41.2163C43.0874 32.7933 44.5792 33.2737 45.6917 34.2345C46.8043 35.1954 47.3605 36.683 47.3605 38.6973Z" fill="white"/>
<path fill-rule="evenodd" clip-rule="evenodd" d="M126.536 52.4054L126.465 45.3054L120.998 42.3944C120.998 42.3944 120.43 43.3174 119.933 44.1694C119.507 44.9504 119.365 45.8024 119.578 46.6544C120.146 48.8554 121.282 52.9024 121.282 52.9024C121.353 53.1864 121.566 53.3994 121.921 53.6124C122.915 54.1094 124.548 54.0384 125.613 53.5414C126.252 53.2574 126.536 52.8314 126.536 52.4054Z" fill="#383B45"/>
<path opacity="0.5479" fill-rule="evenodd" clip-rule="evenodd" d="M123.84 43.4594C124.763 43.8144 125.047 44.9504 124.408 45.8734C123.769 46.7964 122.562 47.2934 121.639 46.8674C120.716 46.5124 120.432 45.3764 121.071 44.4534C121.71 43.5304 122.917 43.0334 123.84 43.4594Z" fill="#9597A0"/>
<path fill-rule="evenodd" clip-rule="evenodd" d="M134.136 47.2933C133.284 47.7193 132.574 48.7843 132.574 49.7073C132.574 50.6303 133.284 50.9853 134.136 50.5593C134.988 50.1333 135.698 49.0683 135.698 48.1453C135.698 47.2933 134.988 46.8673 134.136 47.2933Z" fill="black"/>
<path d="M116.281 40.209C116.914 39.3115 116.959 38.2544 116.382 37.8478C115.805 37.4413 114.824 37.8392 114.192 38.7367C113.56 39.6342 113.515 40.6913 114.092 41.0978C114.668 41.5044 115.649 41.1064 116.281 40.209Z" fill="#383B45"/>
</svg>
