<svg width="196" height="196" viewBox="0 0 196 196" fill="none" xmlns="http://www.w3.org/2000/svg">
<path d="M98.0013 180.842C145.238 180.842 183.53 143.076 183.53 96.4903C183.53 49.9042 145.238 12.1387 98.0013 12.1387C50.7651 12.1387 12.4727 49.9042 12.4727 96.4903C12.4727 143.076 50.7651 180.842 98.0013 180.842Z" fill="#CCE0FF"/>
<path d="M117.912 82.4437H13.6353C12.836 87.0304 12.4727 91.6887 12.4727 96.4904C12.4727 97.1354 12.4727 97.7087 12.4727 98.3537H117.912V82.4437Z" fill="black"/>
<path d="M78.8174 82.3003H66.2461V101.507H78.8174V82.3003Z" fill="#2D2D2D"/>
<path fill-rule="evenodd" clip-rule="evenodd" d="M92.2617 83.8054C92.2617 83.8054 95.459 78.4303 98.0024 74.202C99.819 71.192 103.234 69.6153 106.722 70.117C109.338 70.547 112.39 70.977 114.934 71.407C117.622 71.837 119.584 74.202 119.366 76.9253C119.076 80.5803 118.785 84.952 118.785 84.952L92.2617 83.8054Z" fill="#D7926A"/>
<path fill-rule="evenodd" clip-rule="evenodd" d="M78.8902 98.5686C78.8902 99.2853 78.3089 99.787 77.6549 99.787C75.1115 99.787 69.2982 99.787 66.7549 99.787C66.0282 99.787 65.5195 99.2136 65.5195 98.5686C65.5195 95.2003 65.5195 86.0269 65.5195 82.0136C65.5195 81.0103 66.3915 80.1503 67.4089 80.1503C69.9522 80.1503 74.4575 80.1503 77.0009 80.1503C78.0182 80.1503 78.8902 81.0103 78.8902 82.0136C78.8902 86.0269 78.8902 95.2719 78.8902 98.5686Z" fill="#33353B"/>
<path fill-rule="evenodd" clip-rule="evenodd" d="M83.6875 98.927V81.6554C83.6875 81.2254 83.9055 80.7237 84.2688 80.437C84.6322 80.1504 85.1408 80.0787 85.5768 80.1504C87.0302 80.5087 88.9195 80.9387 89.7188 81.082C90.0095 81.1537 90.2275 81.1537 90.5182 81.1537C96.0408 81.1537 164.493 81.2254 164.493 81.2254V99.2137C164.493 99.2137 96.1135 99.2854 90.5182 99.2854C90.2275 99.2854 90.0095 99.2854 89.7188 99.357C88.9195 99.572 87.0302 100.002 85.5768 100.289C85.1408 100.36 84.6322 100.289 84.2688 100.002C83.9055 99.787 83.6875 99.357 83.6875 98.927Z" fill="#33353B"/>
<path fill-rule="evenodd" clip-rule="evenodd" d="M167.472 82.8737C167.472 81.942 166.746 81.2253 165.801 81.2253C163.185 81.2253 158.316 81.2253 158.316 81.2253V99.2854H165.801C166.746 99.2854 167.472 98.5687 167.472 97.637C167.472 94.197 167.472 86.3137 167.472 82.8737Z" fill="#9597A0"/>
<path fill-rule="evenodd" clip-rule="evenodd" d="M65.5195 98.3536V112.902C65.5195 114.049 65.9555 115.195 66.8275 115.984C67.6269 116.772 68.7895 117.274 69.9522 117.274C72.7135 117.274 76.2015 117.274 79.2535 117.274C80.7068 117.274 82.0149 116.557 82.8142 115.482C83.6135 114.335 83.8315 112.902 83.3955 111.54C81.5062 105.95 78.8902 98.3536 78.8902 98.3536H65.5195Z" fill="#20DFCC"/>
<path fill-rule="evenodd" clip-rule="evenodd" d="M29.1133 74.7753C29.1133 74.7753 39.5773 62.162 46.4079 53.9203C49.9686 49.6203 55.7093 47.6136 61.2319 48.832C70.2426 50.767 83.9766 53.6336 92.0426 55.3537C96.1846 56.2137 100.472 55.3536 103.96 52.917C104.977 52.2003 105.922 51.5553 106.721 50.982C107.957 50.122 108.829 48.832 109.119 47.327C109.192 46.9687 109.265 46.6103 109.337 46.252C109.628 44.8187 110.645 43.6003 112.026 43.027C113.407 42.4537 115.005 42.597 116.241 43.457C117.476 44.2453 118.203 45.607 118.275 47.0403C118.348 48.4736 117.621 49.8353 116.459 50.6953C113.116 53.132 108.756 56.357 105.413 58.8653C101.998 61.4453 97.7833 62.807 93.4233 62.807C85.1393 62.807 71.2599 62.807 64.5019 62.807C62.1766 62.807 60.1419 64.2403 59.4153 66.3903C57.5259 71.7653 54.2559 81.297 54.2559 81.297L29.1133 74.7753Z" fill="#33353B"/>
<path fill-rule="evenodd" clip-rule="evenodd" d="M62.6118 118.42L49.8225 139.419L40.2305 129.099L62.6118 118.42Z" fill="white"/>
<path d="M82.8123 115.41C83.6116 114.264 83.8296 112.83 83.3936 111.469C82.8123 109.82 82.2309 108.1 81.6496 106.38H67.9883L70.5316 117.274C73.2203 117.274 76.4903 117.274 79.2516 117.274C80.6323 117.274 81.9403 116.557 82.8123 115.41Z" fill="#048076"/>
<path fill-rule="evenodd" clip-rule="evenodd" d="M68.7175 120.929L70.7522 137.555L61.1602 135.979L68.7175 120.929Z" fill="white"/>
<path d="M143.418 132.897C144.508 130.317 145.744 127.164 146.688 124.799C147.633 122.362 148.214 119.782 148.214 117.202C148.36 109.39 148.65 91.9753 148.796 82.587C148.868 78.932 146.325 75.7786 142.692 74.9903C140.512 74.4886 138.259 74.0586 136.951 73.772C136.224 73.6286 135.57 73.4136 134.916 73.127C133.463 72.482 130.629 71.2636 128.158 70.2603C125.106 68.9703 121.691 68.6836 118.494 69.4003C116.677 69.8303 114.788 70.2603 113.552 70.547C112.68 70.762 111.808 70.8336 110.936 70.8336C109.338 70.8336 106.649 70.8336 104.033 70.8336C102.434 70.8336 100.836 71.5503 99.7457 72.7686C98.6557 73.987 98.2197 75.6353 98.4377 77.212C98.5104 77.7136 98.5831 78.0003 98.5831 78.0003C98.5831 78.0003 98.5831 92.7636 98.6557 103.227C98.6557 105.377 97.4931 107.384 95.6037 108.459C93.7144 109.534 91.3891 109.605 89.4997 108.53C85.0671 106.094 79.8351 103.227 75.6931 101.005C74.0944 100.145 72.2051 100.145 70.6791 100.934C69.0804 101.794 68.0631 103.299 67.8451 105.09C67.7724 106.165 68.1357 107.312 68.8624 108.1C71.5511 110.895 77.9457 117.632 82.2331 122.147C84.9217 124.942 87.8284 127.522 91.0257 129.744C91.0984 129.744 91.0984 129.815 91.1711 129.815C95.8217 133.04 98.5831 138.272 98.7284 143.934C98.8737 154.469 99.2371 171.669 99.3824 180.985C114.642 180.77 128.958 176.542 141.311 169.447C141.311 160.417 141.384 150.097 141.384 143.934C141.311 139.992 142.038 136.337 143.418 132.897Z" fill="#D7926A"/>
<path d="M145.814 166.437C145.596 165.72 145.378 165.075 145.015 164.43C144.288 163.14 143.198 160.99 142.399 159.557C141.89 158.625 141.6 157.55 141.527 156.475C141.382 154.254 141.164 150.67 141.164 150.67L98.7991 150.599C98.7991 150.599 98.7264 153.25 98.6537 155.83C98.581 159.127 97.8544 162.352 96.5464 165.362C96.4737 165.505 96.401 165.72 96.3284 165.864C95.0204 168.802 94.3664 172.027 94.4391 175.18C94.4391 176.757 94.5117 178.692 94.5117 180.842C95.6744 180.914 96.837 180.914 97.9997 180.914C115.73 180.842 132.153 175.539 145.814 166.437Z" fill="#0050FF"/>
<path fill-rule="evenodd" clip-rule="evenodd" d="M57.5266 83.9486V71.6936C57.5266 71.6936 49.388 63.3803 44.156 58.0053C43.066 56.8586 41.54 56.2136 39.9413 56.2853C38.3426 56.2853 36.8166 56.9303 35.7266 58.077C29.8406 64.1686 19.3766 75.1336 13.9993 80.7236C13.7813 81.8703 13.5633 83.0886 13.418 84.2353L57.5266 83.9486Z" fill="black"/>
</svg>
