<svg width="189" height="189" viewBox="0 0 189 189" fill="none" xmlns="http://www.w3.org/2000/svg">
<path fill-rule="evenodd" clip-rule="evenodd" d="M104.137 128.097C101.764 127.539 99.4612 129.005 98.833 131.308C97.4371 136.473 95.2734 144.569 95.2734 144.569C95.2734 144.569 99.9498 146.803 103.3 148.478C103.858 148.757 104.486 148.617 104.905 148.268C105.324 147.85 105.533 147.221 105.324 146.663C104.905 145.546 104.486 144.43 104.347 143.732C104.137 142.685 105.813 138.008 107.278 134.309C107.767 133.053 107.697 131.657 107.069 130.47C106.441 129.284 105.464 128.377 104.137 128.097Z" fill="#C88459"/>
<path fill-rule="evenodd" clip-rule="evenodd" d="M95.2734 144.569L96.7391 138.986C96.7391 138.986 102.393 139.684 105.115 140.033C105.464 140.102 105.743 140.312 105.952 140.591C106.162 140.87 106.162 141.289 106.022 141.568C105.324 143.173 104.277 145.546 104.277 145.546L95.2734 144.569Z" fill="#FFD2A8"/>
<path fill-rule="evenodd" clip-rule="evenodd" d="M117.05 146.803C117.887 147.012 118.515 147.71 118.515 148.548C118.585 149.455 118.027 150.293 117.189 150.572C115.723 151.06 113.42 151.758 111.466 151.758H94.7848C94.7848 151.758 94.4358 147.919 94.8546 145.546C95.2733 143.173 95.8317 142.126 95.8317 142.126C95.8317 142.126 97.6464 144.15 99.1121 143.871C99.9497 143.732 101.415 142.964 102.672 142.336C103.858 141.777 105.324 141.777 106.51 142.406C108.884 143.732 112.722 145.756 114.397 146.175C115.584 146.454 116.421 146.663 117.05 146.803Z" fill="#E54D4D"/>
<path fill-rule="evenodd" clip-rule="evenodd" d="M118.166 147.431C118.376 147.71 118.585 148.129 118.585 148.548C118.655 149.455 118.096 150.293 117.259 150.572C115.793 151.06 113.49 151.758 111.536 151.758H94.8544C94.8544 151.758 94.7148 149.874 94.7148 147.919C94.7148 147.919 99.112 147.85 101.555 147.85C102.602 147.85 103.649 147.989 104.626 148.338C109.093 149.874 113.909 149.525 118.166 147.431Z" fill="#F48787"/>
<path d="M44.8064 92.9266L21.9414 98.4399L23.8065 106.175L46.6714 100.661L44.8064 92.9266Z" fill="#C88459"/>
<path fill-rule="evenodd" clip-rule="evenodd" d="M22.1953 98.3644L27.4998 97.0383C27.4998 97.0383 27.779 102.971 27.8488 105.623C27.8488 105.972 27.7092 106.251 27.4998 106.461C27.2904 106.67 26.9414 106.81 26.6622 106.81C25.2663 106.74 23.2422 106.6 23.2422 106.6L22.1953 98.3644Z" fill="#FFD2A8"/>
<path fill-rule="evenodd" clip-rule="evenodd" d="M19.1947 118.466C18.9854 119.303 18.2176 119.862 17.3103 119.862C16.4029 119.862 15.6352 119.233 15.356 118.396C14.9372 116.93 14.4486 114.557 14.5184 112.603C14.7278 109.462 15.6352 95.9914 15.6352 95.9914C15.6352 95.9914 19.4739 95.9216 21.847 96.4799C24.22 97.0383 25.1972 97.6665 25.1972 97.6665C25.1972 97.6665 23.0335 99.3416 23.2429 100.877C23.3825 101.715 24.0107 103.25 24.569 104.506C25.0576 105.763 24.918 107.159 24.22 108.345C22.7543 110.648 20.4511 114.348 19.9625 115.953C19.6135 117 19.4041 117.837 19.1947 118.466Z" fill="#E54D4D"/>
<path fill-rule="evenodd" clip-rule="evenodd" d="M18.427 119.443C18.078 119.652 17.729 119.792 17.3103 119.792C16.4029 119.792 15.6352 119.164 15.356 118.326C14.9372 116.86 14.4486 114.487 14.5184 112.533C14.7278 109.392 15.6352 95.9216 15.6352 95.9216C15.6352 95.9216 17.5196 95.9216 19.4739 96.0612C19.4739 96.0612 19.1947 100.458 19.0552 102.901C18.9854 103.948 18.776 104.925 18.3572 105.902C16.6821 110.3 16.6821 115.115 18.427 119.443Z" fill="#F48787"/>
<path fill-rule="evenodd" clip-rule="evenodd" d="M98.4116 58.7902C101.483 60.6049 103.088 64.1645 102.46 67.6543C102.181 69.4689 101.273 71.0742 99.8773 72.2608C94.9218 76.7277 82.3586 88.0346 75.8676 93.9673C73.2153 96.3403 69.9349 98.0154 66.3753 98.7134C55.906 100.737 33.7109 105.065 33.7109 105.065L30.0117 96.4101C36.3631 92.1526 43.4823 89.3607 51.0203 88.1044C54.9986 87.4763 59.0468 86.7783 61.699 86.3595C63.5137 86.0803 65.0492 85.0334 66.0962 83.5677C69.1672 78.9612 76.077 68.6314 79.8459 62.9081C81.6606 60.1861 83.7545 57.6735 86.1276 55.44C87.4537 54.1837 88.71 52.9971 88.71 52.9971C88.71 52.9971 94.1541 56.2775 98.4116 58.7902Z" fill="#162462"/>
<path fill-rule="evenodd" clip-rule="evenodd" d="M86.7583 54.8118C81.4538 62.0008 82.1518 71.9118 88.3636 78.2632C95.6224 85.7314 104.417 94.8048 107.906 98.3644C108.814 99.2718 109.093 100.668 108.535 101.854C107.906 103.32 106.929 105.484 106.022 107.647C103.928 112.463 102.253 117.419 100.997 122.444C99.6007 128.167 97.8558 135.077 97.8558 135.077L111.326 136.961C111.326 136.961 117.329 119.582 121.377 107.926C123.611 101.435 122.843 94.2465 119.144 88.3836C112.513 77.7746 102.602 61.8612 102.602 61.8612L86.7583 54.8118Z" fill="#1C2F7A"/>
<path fill-rule="evenodd" clip-rule="evenodd" d="M104.974 21.938L101.484 29.0572L110.837 33.3845L113.768 26.6841C113.768 26.6841 115.513 26.7539 116.909 26.8237C117.886 26.8237 118.724 26.1257 118.794 25.1486C118.933 23.9621 119.073 22.4964 119.073 21.938C119.073 21.7984 119.143 21.7286 119.282 21.6588C119.422 21.589 119.631 21.4494 119.841 21.3796C120.12 21.24 120.259 20.8911 120.12 20.5421C119.771 19.7743 119.143 18.4482 118.864 17.82C118.724 17.6106 118.724 17.3315 118.864 17.0523C118.933 16.9825 119.003 16.8429 119.003 16.7033C119.282 16.1449 119.352 15.5866 119.282 14.9584C118.654 11.329 115.723 8.60699 112.024 8.25801C111.675 8.25801 111.326 8.18821 110.907 8.18821C107.906 7.90903 104.974 9.37474 103.508 12.027C101.973 14.6094 102.182 17.8898 103.927 20.3327C104.555 21.3796 104.974 21.938 104.974 21.938Z" fill="#C88459"/>
<path fill-rule="evenodd" clip-rule="evenodd" d="M119.143 22.2172C119.143 22.2172 118.026 22.3568 117.328 22.4963C117.189 22.4963 117.119 22.5661 117.119 22.7057C117.049 22.7755 117.119 22.9151 117.189 22.9849C117.189 23.0547 117.258 23.0547 117.258 23.1245C117.747 23.7527 118.445 24.1714 119.213 24.4506L119.841 23.4037L119.143 22.2172Z" fill="#824732"/>
<path fill-rule="evenodd" clip-rule="evenodd" d="M103.858 24.3111C100.578 25.4976 97.8556 27.8706 96.2503 31.0115C94.8544 33.7335 93.2491 36.9441 92.1324 39.038C91.3646 40.5037 90.5969 41.8996 89.6895 43.2955C88.6426 44.9706 87.1071 47.2739 85.9205 49.1584C84.6642 51.1126 84.8736 53.6253 86.4091 55.3004L104.905 65.6302C109.791 62.8383 112.862 57.7432 112.932 52.0898C113.071 44.7612 113.211 35.1992 113.281 32.6866C113.281 32.2678 113.42 31.849 113.629 31.5C114.118 30.6625 115.025 29.0572 115.025 29.0572L105.743 23.6131C105.743 23.6829 104.905 23.9621 103.858 24.3111Z" fill="#E54D4D"/>
<path fill-rule="evenodd" clip-rule="evenodd" d="M101.343 16.9127C102.879 9.44457 109.3 8.32784 113.627 9.23518C115.861 9.72375 119.141 11.9572 119.63 13.2135C120.188 14.6793 120.886 16.2148 119.141 17.4711C118.024 18.2388 116.14 17.8899 114.953 19.4952C114.255 20.4025 114.884 22.0776 111.673 23.3339C110.696 23.7527 109.091 23.5433 108.113 23.2641C107.485 23.1245 106.787 23.2641 106.299 23.6131C105.531 24.1715 104.205 24.9392 102.879 25.0788C100.994 25.2882 98.8306 23.5433 99.5286 21.1005C99.9473 19.565 101.413 19.0764 101.413 19.0764C101.413 19.0764 101.204 17.7503 101.343 16.9127Z" fill="#FFD2A8"/>
<path fill-rule="evenodd" clip-rule="evenodd" d="M52.4883 146.524L55.9083 149.455L76.847 152.666H81.1744C81.1744 152.666 81.1744 152.596 81.1046 152.386C78.8711 145.058 72.0311 140.033 64.3536 140.033C59.2585 140.033 54.5822 140.033 54.5822 140.033V144.709L52.4883 146.524Z" fill="#383B45"/>
<path fill-rule="evenodd" clip-rule="evenodd" d="M65.8885 144.29C72.7285 144.29 78.3122 149.874 78.3122 156.714C78.3122 163.554 72.7285 169.137 65.8885 169.137C59.0485 169.137 53.4648 163.554 53.4648 156.714C53.4648 149.874 59.0485 144.29 65.8885 144.29Z" fill="black"/>
<path fill-rule="evenodd" clip-rule="evenodd" d="M65.89 150.292C69.4495 150.292 72.3112 153.154 72.3112 156.714C72.3112 160.273 69.4495 163.135 65.89 163.135C62.3304 163.135 59.4688 160.273 59.4688 156.714C59.4688 153.154 62.4002 150.292 65.89 150.292Z" fill="#383B45"/>
<path fill-rule="evenodd" clip-rule="evenodd" d="M63.0977 156.155C63.0977 153.782 65.0519 151.828 67.425 151.828C83.0593 151.828 135.895 151.828 135.895 151.828C135.895 151.828 134.638 154.69 133.591 157.132C132.684 159.157 130.66 160.483 128.427 160.483C116.631 160.483 79.9882 160.483 67.3552 160.483C65.0519 160.483 63.0977 158.528 63.0977 156.155Z" fill="#20DFCC"/>
<path fill-rule="evenodd" clip-rule="evenodd" d="M80.8945 151.828H127.797L125.634 160.483H83.9655L80.8945 151.828Z" fill="black"/>
<path fill-rule="evenodd" clip-rule="evenodd" d="M158.645 144.29C163.67 144.29 167.718 148.338 167.718 153.363C167.718 158.389 163.67 162.437 158.645 162.437C153.62 162.437 149.571 158.389 149.571 153.363C149.571 148.338 153.689 144.29 158.645 144.29ZM158.645 137.52C167.369 137.52 174.419 144.569 174.419 153.294C174.419 162.018 167.369 169.068 158.645 169.068C149.92 169.068 142.871 162.018 142.871 153.294C142.871 144.569 149.92 137.52 158.645 137.52Z" fill="black"/>
<path fill-rule="evenodd" clip-rule="evenodd" d="M131.147 115.395C130.867 115.395 130.658 115.604 130.588 115.813C130.518 116.302 130.379 117.07 130.239 117.628C130.239 117.768 130.239 117.977 130.379 118.047C130.449 118.186 130.658 118.256 130.798 118.256C132.473 118.256 136.87 118.186 138.266 118.186C138.545 118.186 138.754 117.977 138.824 117.768C138.894 117.279 139.034 116.511 139.103 116.023C139.103 115.883 139.103 115.674 138.964 115.604C138.894 115.464 138.685 115.395 138.545 115.395C136.94 115.325 132.612 115.395 131.147 115.395ZM143.082 116.511C143.221 115.883 143.082 115.185 142.663 114.627C142.244 114.138 141.616 113.789 140.918 113.789C137.847 113.789 133.031 113.789 130.658 113.789C129.89 113.789 129.192 114.348 129.053 115.115C127.936 120.559 123.469 141.638 121.864 149.385C121.724 150.083 121.864 150.781 122.352 151.339C122.771 151.898 123.469 152.247 124.167 152.247C126.959 152.247 131.216 152.247 133.59 152.247C134.706 152.247 135.683 151.479 135.893 150.362C137.219 144.15 141.546 123.84 143.082 116.511Z" fill="black"/>
<path fill-rule="evenodd" clip-rule="evenodd" d="M125.844 160.483H129.892C133.103 160.483 136.034 158.528 137.22 155.597C141.338 145.756 150.272 124.328 150.272 124.328L145.107 112.184L125.844 160.483Z" fill="#20DFCC"/>
<path fill-rule="evenodd" clip-rule="evenodd" d="M140.848 113.859C140.848 113.859 140.22 118.326 139.941 120.49C139.871 121.188 139.312 121.746 138.614 121.955C137.707 122.165 136.521 122.514 135.613 122.793C134.776 123.002 134.148 123.7 133.938 124.538C132.542 130.54 127.168 154.41 127.168 154.41L135.334 151.828L145.315 113.929H140.848V113.859Z" fill="#20DFCC"/>
<path fill-rule="evenodd" clip-rule="evenodd" d="M131.637 150.013L133.8 143.452C133.8 143.383 133.94 143.313 134.01 143.313L134.568 143.522C134.638 143.522 134.708 143.662 134.638 143.732L133.731 146.524L137.081 147.64C137.151 147.64 137.22 147.78 137.151 147.85L136.941 148.548C136.941 148.617 136.802 148.687 136.732 148.687L133.382 147.57L132.474 150.362C132.474 150.432 132.335 150.502 132.265 150.502L131.707 150.292C131.707 150.223 131.637 150.083 131.637 150.013ZM134.289 142.057L134.498 141.359C134.498 141.289 134.638 141.219 134.708 141.219L138.756 142.545C138.826 142.545 138.895 142.685 138.826 142.755L138.616 143.452C138.616 143.522 138.477 143.592 138.407 143.592L134.359 142.266C134.289 142.196 134.219 142.126 134.289 142.057ZM134.987 139.893L136.871 134.1C136.871 134.03 137.011 133.96 137.081 133.96L137.639 134.17C137.709 134.17 137.779 134.309 137.709 134.379L136.104 139.335L137.011 139.614L138.407 135.286C138.407 135.217 138.546 135.147 138.616 135.147L139.105 135.286C139.175 135.286 139.244 135.426 139.175 135.496L137.779 139.823L138.686 140.102L140.291 135.147C140.291 135.077 140.431 135.007 140.501 135.007L141.059 135.217C141.129 135.217 141.199 135.356 141.129 135.426L139.244 141.219C139.244 141.289 139.105 141.359 139.035 141.359L134.987 140.032C134.987 140.102 134.917 139.963 134.987 139.893ZM137.36 132.634L138.756 128.307C139.105 127.19 139.803 126.841 140.571 126.911C141.548 127.05 142.106 127.748 141.687 129.075L143.502 127.539C143.572 127.469 143.642 127.469 143.711 127.539C143.781 127.609 143.781 127.609 143.711 127.679L143.432 128.516C143.432 128.516 143.432 128.586 143.362 128.586L141.129 130.401L140.431 132.634L141.757 133.053C141.827 133.053 141.897 133.193 141.827 133.262L141.617 133.96C141.617 134.03 141.478 134.1 141.408 134.1L137.36 132.774C137.36 132.774 137.29 132.704 137.36 132.634ZM139.663 132.425L140.78 128.935C140.989 128.237 140.78 127.958 140.361 127.888C140.082 127.818 139.803 127.958 139.593 128.516L138.477 132.006L139.663 132.425Z" fill="#141E4B"/>
<path fill-rule="evenodd" clip-rule="evenodd" d="M154.25 129.842L149.992 131.099C149.992 131.099 154.738 147.361 156.413 153.294C156.762 154.48 157.949 155.108 159.135 154.829C160.322 154.48 160.95 153.294 160.671 152.107C158.926 146.105 154.25 129.842 154.25 129.842Z" fill="black"/>
<path fill-rule="evenodd" clip-rule="evenodd" d="M128.563 59.2089C128.563 59.2089 127.865 56.7661 127.028 54.1138C126.539 52.5085 126.888 50.8334 127.865 49.5073C128.843 48.1812 130.378 47.4135 132.053 47.4135C135.124 47.4135 137.986 47.4135 137.986 47.4135L137.846 51.0428C137.846 51.0428 135.683 51.0428 133.938 51.0428C133.449 51.0428 133.03 51.2522 132.681 51.671C132.402 52.0898 132.332 52.5783 132.472 52.9971C133.1 54.9514 133.938 57.7432 133.938 57.7432L128.563 59.2089Z" fill="black"/>
<path fill-rule="evenodd" clip-rule="evenodd" d="M130.591 62.4894C130.591 62.4894 126.124 64.7926 122.913 66.4677C121.099 67.4449 120.191 69.5388 120.75 71.5628C122.355 76.9371 125.356 87.2669 126.822 92.2224C127.31 93.8975 128.776 95.0142 130.521 95.0142H140.153L130.591 62.4894Z" fill="black"/>
<path fill-rule="evenodd" clip-rule="evenodd" d="M133.941 57.6036L128.566 59.1391C128.566 59.1391 148.528 127.818 150.692 135.286C150.761 135.426 150.831 135.635 151.041 135.705C151.18 135.775 151.39 135.845 151.529 135.775C152.576 135.496 154.6 134.868 155.577 134.588C155.717 134.519 155.926 134.449 155.996 134.239C156.066 134.1 156.136 133.89 156.066 133.751C153.902 126.352 133.941 57.6036 133.941 57.6036Z" fill="#20DFCC"/>
<path d="M93.3168 28.1498C93.3168 28.1498 101.832 25.9164 106.718 27.4519C109.37 28.2894 111.464 30.0343 111.464 33.2449C111.464 41.6204 82.2891 48.4604 82.2891 48.4604" stroke="#CCCED8" stroke-width="2.5942" stroke-miterlimit="1.5"/>
<path fill-rule="evenodd" clip-rule="evenodd" d="M111.257 59.8372C115.724 61.7914 126.054 54.1139 129.893 51.0429C130.8 50.3449 131.986 50.2751 132.964 50.8335C133.243 50.9731 133.522 51.1825 133.731 51.2523C134.15 51.4617 134.499 51.671 134.918 51.8804C135.476 52.0898 136.244 52.369 136.733 52.5784C136.942 52.6482 137.221 52.5784 137.361 52.369C137.71 51.8804 137.64 51.2523 137.221 50.8335C137.012 50.6241 136.733 50.3449 136.453 50.0657C136.035 49.647 135.825 49.0886 135.895 48.5302C135.895 47.9719 136.174 47.4135 136.593 47.0645C136.663 47.0645 136.663 46.9947 136.733 46.9947C137.5 46.3666 138.687 46.3666 139.385 47.1343C140.013 47.7625 140.292 48.7396 140.083 49.5772C140.013 49.9959 139.873 50.4845 139.804 50.8335C139.664 51.3221 139.943 51.8106 140.362 52.02C140.502 52.0898 140.711 52.0898 140.92 52.02C141.13 51.9502 141.2 51.8106 141.269 51.6013C141.409 50.8335 141.688 49.647 141.897 48.6698C142.177 47.4833 141.758 46.1572 140.851 45.3196C140.641 45.1102 140.432 44.9009 140.153 44.6915C138.966 43.5747 137.221 43.156 135.616 43.7143C129.544 45.7384 114.886 50.6241 114.886 50.6241C114.886 50.6241 113.072 45.529 111.536 41.3413C111.048 39.9454 109.931 38.8286 108.535 38.2703C107.139 37.7119 105.604 37.7817 104.278 38.4796C101.974 39.6662 100.927 42.458 101.904 44.9009C104.138 50.1355 107.907 58.3714 111.257 59.8372Z" fill="#C88459"/>
<path d="M138.055 51.671C139.481 51.671 140.638 50.5148 140.638 49.0886C140.638 47.6623 139.481 46.5061 138.055 46.5061C136.629 46.5061 135.473 47.6623 135.473 49.0886C135.473 50.5148 136.629 51.671 138.055 51.671Z" fill="black"/>
<path fill-rule="evenodd" clip-rule="evenodd" d="M102.669 28.0103C104.345 27.4519 106.159 27.5915 107.695 28.429C109.23 29.2666 110.347 30.7323 110.766 32.4074C112.511 39.8057 115.093 50.6241 115.093 50.6241C115.093 50.6241 114.535 50.9033 113.697 51.2523C110.138 52.8576 106.229 53.5555 102.321 53.4159C102.321 53.4159 100.296 41.0621 99.1099 34.1523C98.6213 31.5 100.157 28.9176 102.669 28.0103Z" fill="#FFB4B4"/>
<path fill-rule="evenodd" clip-rule="evenodd" d="M112.44 21.7984L104.483 14.3303C104.274 14.1209 103.925 14.1209 103.716 14.3303C103.506 14.5396 103.506 14.8886 103.716 15.098L112.301 23.1245L113.347 27.0331C113.417 27.3123 113.696 27.5217 113.976 27.3821C114.255 27.3123 114.464 27.0331 114.325 26.7539L113.278 22.8453L115.092 13.2135C115.162 12.9343 114.953 12.6552 114.674 12.5854C114.394 12.5156 114.115 12.725 114.045 13.0041L112.44 21.7984Z" fill="black"/>
<path fill-rule="evenodd" clip-rule="evenodd" d="M84.8012 29.2666C84.8012 29.2666 82.7771 27.7311 81.7302 26.9633C81.3812 26.6841 80.8228 26.6841 80.4738 26.8935C79.0081 27.8707 75.3089 30.2437 72.2379 32.198C71.1212 32.896 70.4232 34.1523 70.4232 35.4784C70.3534 36.8045 70.9816 38.0608 72.0285 38.8286C73.3547 39.8755 74.4714 40.7131 74.4714 40.7131L84.8012 29.2666Z" fill="#CCCED8"/>
<path fill-rule="evenodd" clip-rule="evenodd" d="M85.5705 29.8249C85.5705 29.8249 83.1276 27.9404 81.5921 26.8237C80.9639 26.3351 80.0566 26.4049 79.568 27.0331C79.1492 27.5216 78.7305 28.0102 78.7305 28.0102L83.9652 31.9188L85.5705 29.8249Z" fill="#9094A4"/>
<path fill-rule="evenodd" clip-rule="evenodd" d="M98.6913 24.3809C99.1799 24.7298 99.5289 25.2882 99.5987 25.9164C99.6685 26.5445 99.5289 27.1727 99.1799 27.6613C95.6203 32.3376 86.3375 44.6216 83.1269 48.8792C82.8477 49.298 82.4289 49.5074 81.9403 49.5772C81.4518 49.6469 80.9632 49.5074 80.6142 49.2282C78.8693 47.9021 75.9379 45.6686 73.6346 43.9237C72.7971 43.2955 72.2387 42.3184 72.1689 41.2714C72.0991 40.2245 72.4481 39.1776 73.1461 38.4098C77.1942 34.0127 84.7322 25.9862 88.7803 21.7286C90.3158 20.1233 92.8285 19.9139 94.5734 21.2401C95.8995 22.2172 97.5048 23.4735 98.6913 24.3809Z" fill="#9094A4"/>
<path fill-rule="evenodd" clip-rule="evenodd" d="M121.028 14.1907C121.098 13.4229 120.4 12.1666 119.423 10.8405C116.701 7.21109 111.885 5.3964 107.069 6.16415C104.347 6.58293 101.974 8.18823 100.648 10.4217C99.3214 12.6552 99.2516 15.3772 100.438 17.6107C100.717 18.169 100.996 18.6576 101.206 18.9368C102.462 20.7515 120.818 16.145 121.028 14.1907Z" fill="#12D1B8"/>
</svg>
