<svg width="180" height="181" viewBox="0 0 180 181" fill="none" xmlns="http://www.w3.org/2000/svg">
<g clip-path="url(#clip0)">
<path fill-rule="evenodd" clip-rule="evenodd" d="M21.6025 52.0652C25.4795 52.0652 29.2695 53.2149 32.4931 55.3688C35.7167 57.5228 38.2292 60.5843 39.7129 64.1662C41.1966 67.748 41.5848 71.6895 40.8284 75.492C40.072 79.2945 38.2051 82.7873 35.4636 85.5288C32.7222 88.2703 29.2293 90.1372 25.4268 90.8936C21.6243 91.65 17.6829 91.2618 14.101 89.7781C10.5191 88.2944 7.45758 85.7819 5.30362 82.5583C3.14967 79.3347 2 75.5447 2 71.6677C2.00517 66.4704 4.07209 61.4874 7.74716 57.8123C11.4222 54.1373 16.4052 52.0704 21.6025 52.0652Z" fill="#CCE0FF"/>
<path fill-rule="evenodd" clip-rule="evenodd" d="M157.712 52.0652C161.589 52.0652 165.379 53.2149 168.603 55.3688C171.826 57.5228 174.339 60.5843 175.822 64.1662C177.306 67.748 177.694 71.6895 176.938 75.492C176.181 79.2945 174.314 82.7873 171.573 85.5288C168.832 88.2703 165.339 90.1372 161.536 90.8936C157.734 91.65 153.792 91.2618 150.21 89.7781C146.628 88.2944 143.567 85.7819 141.413 82.5583C139.259 79.3347 138.109 75.5447 138.109 71.6677C138.115 66.4704 140.181 61.4874 143.857 57.8123C147.532 54.1373 152.515 52.0704 157.712 52.0652Z" fill="#CCE0FF"/>
<path d="M102.88 105.663H75.5273V140.96H102.88V105.663Z" fill="black"/>
<path fill-rule="evenodd" clip-rule="evenodd" d="M89.2027 112.566H112.713C112.991 112.571 113.267 112.521 113.526 112.419C113.785 112.317 114.021 112.165 114.221 111.971C114.421 111.777 114.58 111.546 114.69 111.291C114.8 111.035 114.858 110.76 114.862 110.482C114.927 103.904 114.08 83.9111 101.967 77.9196C98.3852 76.1613 89.8539 73.947 89.1375 73.8168C88.4863 74.0121 79.8898 76.1613 76.308 77.9196C64.1948 83.9111 63.3482 103.904 63.4133 110.482C63.4167 110.76 63.475 111.035 63.5851 111.291C63.6951 111.546 63.8545 111.777 64.0543 111.971C64.254 112.165 64.4901 112.317 64.7489 112.419C65.0077 112.521 65.2842 112.571 65.5624 112.566H89.2027Z" fill="black"/>
<path fill-rule="evenodd" clip-rule="evenodd" d="M71.813 96.8058C71.8048 96.2835 71.9047 95.7651 72.1065 95.2832C72.3082 94.8012 72.6074 94.3662 72.9852 94.0055C73.7314 93.2665 74.7354 92.8462 75.7856 92.8332H102.552C103.074 92.8251 103.593 92.925 104.074 93.1267C104.556 93.3285 104.991 93.6276 105.352 94.0055C106.091 94.7517 106.511 95.7557 106.524 96.8058V108.593C106.533 109.116 106.433 109.634 106.231 110.116C106.029 110.598 105.73 111.033 105.352 111.394C104.606 112.133 103.602 112.553 102.552 112.566H75.7856C75.2632 112.574 74.7448 112.474 74.2629 112.273C73.781 112.071 73.346 111.772 72.9852 111.394C72.2462 110.648 71.8259 109.644 71.813 108.593V96.8058Z" fill="#33353B"/>
<path fill-rule="evenodd" clip-rule="evenodd" d="M96.1038 77.8545H82.2322C82.2322 77.8545 81.2554 80.3944 80.0831 83.6506C79.5397 85.1103 79.3624 86.6809 79.5667 88.225C79.7711 89.7691 80.3509 91.2395 81.2554 92.5076C82.1445 93.7925 83.3317 94.8428 84.7154 95.5687C86.0991 96.2945 87.638 96.6743 89.2006 96.6755C90.7587 96.6696 92.2925 96.2895 93.6732 95.5674C95.0538 94.8452 96.2408 93.802 97.1343 92.5255C98.0278 91.2491 98.6017 89.7767 98.8077 88.2323C99.0137 86.6879 98.8457 85.1166 98.318 83.6506C97.0807 80.4595 96.1038 77.8545 96.1038 77.8545Z" fill="#4B4D54"/>
<path d="M151.332 67.63H90.375V77.008H151.332V67.63Z" fill="black"/>
<path fill-rule="evenodd" clip-rule="evenodd" d="M99.5586 67.63L109.979 55.5168C110.98 54.3647 112.222 53.4467 113.618 52.8277C115.013 52.2088 116.528 51.904 118.054 51.9349C121.245 52.0652 125.218 52.1303 127.823 52.2606C129.53 52.3013 131.21 51.8245 132.642 50.8929C135.182 49.1997 139.285 46.5296 140.783 45.4876C141.167 45.2236 141.444 44.8309 141.564 44.3805C141.564 44.2502 141.629 44.1851 141.629 44.0548C141.732 43.5963 141.955 43.1734 142.275 42.8299C142.596 42.4864 143.002 42.2348 143.453 42.1011C143.901 41.9668 144.376 41.9502 144.832 42.0528C145.288 42.1555 145.71 42.374 146.058 42.6872L146.123 42.7524C146.402 43.0073 146.622 43.3199 146.768 43.6685C146.915 44.0172 146.983 44.3934 146.969 44.7712C146.952 45.1449 146.85 45.5096 146.669 45.8372C146.488 46.1647 146.234 46.4462 145.927 46.6598L133.423 55.7773C132.119 56.7432 130.552 57.2885 128.93 57.3403C127.237 57.4054 125.087 57.5357 123.524 57.6008C122.96 57.634 122.43 57.8819 122.042 58.2936C121.655 58.7053 121.44 59.2497 121.44 59.815V67.63H99.5586Z" fill="black"/>
<path fill-rule="evenodd" clip-rule="evenodd" d="M89.2016 63.9829L85.75 73.0353L89.2016 81.3712H93.4998C96.4648 81.3642 99.4176 80.9924 102.292 80.2641C103.724 79.8734 105.287 79.4826 106.785 79.0919C110.25 78.1812 113.818 77.7215 117.401 77.7242H123.848L123.913 66.7833C123.913 66.7833 111.605 66.9135 105.027 65.4808C99.8249 64.388 94.5163 63.8856 89.2016 63.9829Z" fill="#4B4D54"/>
<path d="M87.8981 67.63H26.9414V77.008H87.8981V67.63Z" fill="black"/>
<path fill-rule="evenodd" clip-rule="evenodd" d="M10.207 67.5649C10.2073 67.4544 10.2307 67.3453 10.2755 67.2444C10.3204 67.1435 10.3858 67.053 10.4675 66.9788C10.543 66.8985 10.6337 66.8341 10.7343 66.7894C10.835 66.7446 10.9435 66.7205 11.0537 66.7183H70.3823V77.6592H11.0537C10.9432 77.6589 10.8341 77.6356 10.7331 77.5907C10.6322 77.5459 10.5418 77.4805 10.4675 77.3987C10.2722 77.2033 10.207 77.1382 10.207 76.8777V67.5649Z" fill="black"/>
<path fill-rule="evenodd" clip-rule="evenodd" d="M10.207 67.5649C10.2073 67.4544 10.2307 67.3453 10.2755 67.2444C10.3204 67.1435 10.3858 67.053 10.4675 66.9788C10.543 66.8985 10.6337 66.8341 10.7343 66.7894C10.835 66.7446 10.9435 66.7205 11.0537 66.7183H70.3823V77.6592H11.0537C10.9432 77.6589 10.8341 77.6356 10.7331 77.5907C10.6322 77.5459 10.5418 77.4805 10.4675 77.3987C10.2722 77.2033 10.207 77.1382 10.207 76.8777V67.5649Z" fill="black"/>
<path fill-rule="evenodd" clip-rule="evenodd" d="M78.8461 67.63L68.4262 55.5168C67.4247 54.3647 66.1823 53.4467 64.7868 52.8277C63.3914 52.2088 61.8769 51.904 60.3507 51.9349C57.1596 52.0652 53.187 52.1303 50.582 52.2606C48.8744 52.3013 47.1944 51.8245 45.7628 50.8929C43.2229 49.1997 39.1201 46.5296 37.6222 45.4876C37.2379 45.2236 36.9608 44.8309 36.8407 44.3805C36.8407 44.2502 36.7756 44.1851 36.7756 44.0548C36.6732 43.5963 36.4502 43.1734 36.1296 42.8299C35.809 42.4864 35.4025 42.2348 34.9521 42.1011C34.5041 41.9668 34.0291 41.9502 33.5728 42.0528C33.1165 42.1555 32.6944 42.374 32.3471 42.6872L32.282 42.7524C32.0028 43.0073 31.7825 43.3199 31.6363 43.6685C31.4901 44.0172 31.4215 44.3934 31.4353 44.7712C31.4523 45.1449 31.5552 45.5096 31.7359 45.8372C31.9166 46.1647 32.1703 46.4462 32.4773 46.6598L44.9813 55.7773C46.2853 56.7432 47.8529 57.2885 49.4749 57.3403C51.1681 57.4054 53.3172 57.5357 54.8802 57.6008C55.4446 57.634 55.9749 57.8819 56.3624 58.2936C56.7499 58.7053 56.9652 59.2497 56.9642 59.815V67.63H78.8461Z" fill="black"/>
<path fill-rule="evenodd" clip-rule="evenodd" d="M89.2024 63.9829L92.654 73.0353L89.2024 81.3712H84.9041C81.9392 81.3643 78.9864 80.9924 76.1123 80.2641C74.6796 79.8734 73.1166 79.4826 71.6187 79.0919C68.1538 78.1812 64.5859 77.7215 61.0034 77.7242H54.4909L54.4258 66.7833C54.4258 66.7833 66.7344 66.9135 73.3119 65.4808C78.5363 64.3901 83.8663 63.8877 89.2024 63.9829Z" fill="#4B4D54"/>
<path d="M93.3034 68.4766H85.0977V76.7474H93.3034V68.4766Z" fill="#DBDCE3"/>
<path fill-rule="evenodd" clip-rule="evenodd" d="M121.438 78.7662V83.325C121.449 84.1854 121.762 85.0146 122.321 85.6688C122.88 86.323 123.65 86.761 124.498 86.9068C124.919 86.9738 125.348 86.9564 125.762 86.8558C126.176 86.7552 126.565 86.5733 126.908 86.3207C128.015 85.5392 129.643 84.367 130.555 83.6506C130.747 83.516 130.881 83.3132 130.93 83.0834C130.978 82.8536 130.937 82.614 130.815 82.4132C130.034 81.1759 128.536 78.7662 128.536 78.7662L125.019 76.8125L121.438 78.7662Z" fill="#33353B"/>
<path d="M129.122 65.6763H121.438V78.7663H129.122V65.6763Z" fill="black"/>
<path fill-rule="evenodd" clip-rule="evenodd" d="M49.2812 65.6762H55.7937C55.9394 65.6753 56.0837 65.7033 56.2184 65.7587C56.3531 65.814 56.4755 65.8955 56.5785 65.9985C56.6815 66.1015 56.763 66.2239 56.8183 66.3586C56.8737 66.4933 56.9017 66.6377 56.9008 66.7833V78.7662H49.2812V65.6762Z" fill="black"/>
<path d="M128.471 65.6763H116.488V77.7243H128.471V65.6763Z" fill="black"/>
<path d="M61.8494 66.5228H56.3789V77.7243H61.8494V66.5228Z" fill="black"/>
<path d="M61.7859 65.6763H55.2734V77.7243H61.7859V65.6763Z" fill="black"/>
<path fill-rule="evenodd" clip-rule="evenodd" d="M136.549 66.7833C135.671 66.7754 134.797 66.6661 133.944 66.4577C133.358 66.3275 132.642 66.1321 132.121 66.0018C131.419 65.8191 130.697 65.7315 129.972 65.7413H128.539V78.8965H129.972C130.697 78.9064 131.419 78.8188 132.121 78.636C132.707 78.5058 133.358 78.3104 133.944 78.1802C134.798 77.9758 135.672 77.8666 136.549 77.8545H165.335V66.9136H136.549V66.7833Z" fill="#33353B"/>
<path fill-rule="evenodd" clip-rule="evenodd" d="M168.591 67.9556C168.573 67.6852 168.457 67.4307 168.265 67.2391C168.074 67.0475 167.819 66.9319 167.549 66.9136H165.27V77.8545H167.549C167.819 77.8362 168.074 77.7206 168.265 77.529C168.457 77.3374 168.573 77.0829 168.591 76.8125V67.9556Z" fill="white"/>
<path fill-rule="evenodd" clip-rule="evenodd" d="M49.8658 65.6762H48.433C47.7082 65.6663 46.9854 65.7539 46.2839 65.9367C45.6978 66.0669 45.0465 66.2623 44.4604 66.3925C43.6068 66.5969 42.7331 66.7061 41.8554 66.7182H13.0703V77.6591H41.8554C42.7334 77.6671 43.6075 77.7763 44.4604 77.9847C45.0465 78.115 45.7629 78.3104 46.2839 78.4406C46.9854 78.6233 47.7082 78.711 48.433 78.7011H49.8658V65.6762Z" fill="#33353B"/>
<path fill-rule="evenodd" clip-rule="evenodd" d="M9.75 67.7603C9.76829 67.4899 9.88394 67.2354 10.0755 67.0438C10.2671 66.8522 10.5217 66.7365 10.792 66.7183H13.0714V77.6592H10.792C10.5217 77.6409 10.2671 77.5253 10.0755 77.3337C9.88394 77.1421 9.76829 76.8875 9.75 76.6172V67.7603Z" fill="white"/>
<path fill-rule="evenodd" clip-rule="evenodd" d="M89.5258 98.1083L86.2695 104.425L88.9396 104.295V107.812L92.0005 101.82L89.4606 102.016L89.5258 98.1083Z" fill="#CCCED8"/>
</g>
<defs>
<clipPath id="clip0">
<rect width="175.316" height="98.97" fill="white" transform="translate(2 41.9904)"/>
</clipPath>
</defs>
</svg>
