<svg width="196" height="196" viewBox="0 0 196 196" fill="none" xmlns="http://www.w3.org/2000/svg">
<path d="M60.6682 70.8572H56.6016V113.924H60.6682V70.8572Z" fill="#9094A4"/>
<path d="M174.4 70.8572H170.934V113.924H174.4V70.8572Z" fill="#9094A4"/>
<path d="M177.003 90.4573H51.3359V99.3906H177.003V90.4573Z" fill="#B7694E"/>
<path d="M177.003 76.5906H51.3359V85.5239H177.003V76.5906Z" fill="#B7694E"/>
<path fill-rule="evenodd" clip-rule="evenodd" d="M56.8664 115.791L45.0664 154.391H48.3331L62.7331 115.191L56.8664 115.791Z" fill="#9094A4"/>
<path fill-rule="evenodd" clip-rule="evenodd" d="M174.468 115.724L183.201 154.391H179.934L168.734 115.791L174.468 115.724Z" fill="#9094A4"/>
<path fill-rule="evenodd" clip-rule="evenodd" d="M96.7321 91.1238H116.065C116.065 91.1238 117.799 102.124 118.799 108.324C118.932 109.39 118.665 110.457 117.999 111.257C117.332 112.057 116.265 112.524 115.199 112.524C110.332 112.524 102.465 112.524 97.6655 112.524C96.5988 112.524 95.5988 112.057 94.8655 111.257C94.1988 110.457 93.8655 109.39 94.0655 108.324C94.9988 102.124 96.7321 91.1238 96.7321 91.1238Z" fill="#FF9E9E"/>
<path fill-rule="evenodd" clip-rule="evenodd" d="M96.7344 90.4571C96.7344 90.1238 96.8677 89.7238 97.1344 89.4571C97.401 89.1905 97.7344 89.0571 98.1344 89.0571H114.668C115.068 89.0571 115.401 89.1905 115.668 89.4571C115.934 89.7238 116.068 90.0571 116.068 90.4571V100.19C116.068 100.724 115.868 101.19 115.534 101.524C115.201 101.857 114.668 102.057 114.201 102.057C110.534 102.057 102.401 102.057 98.6677 102.057C98.1344 102.057 97.6677 101.857 97.3344 101.524C97.001 101.19 96.801 100.657 96.801 100.19C96.7344 97.5905 96.7344 92.7905 96.7344 90.4571Z" fill="#FFB4B4"/>
<path d="M102.066 89.7238V86.6572C102.066 86.1905 102.266 85.7905 102.6 85.4572C102.933 85.1238 103.333 84.9238 103.8 84.9238C105.333 84.9238 107.533 84.9238 109.066 84.9238C109.533 84.9238 109.933 85.1238 110.266 85.4572C110.6 85.7905 110.8 86.1905 110.8 86.6572C110.8 87.9905 110.8 89.7238 110.8 89.7238" stroke="#FFB4B4" stroke-width="1.80733" stroke-miterlimit="10" stroke-linecap="round" stroke-linejoin="round"/>
<path fill-rule="evenodd" clip-rule="evenodd" d="M104.934 102.124H107.801V102.59C107.801 103.39 107.134 104.057 106.334 104.057C105.534 104.057 104.867 103.39 104.867 102.59C104.934 102.324 104.934 102.124 104.934 102.124Z" fill="white"/>
<path fill-rule="evenodd" clip-rule="evenodd" d="M135.402 41.7239L140.802 69.1239C140.802 69.1239 129.868 69.0572 126.602 69.0572C126.002 69.0572 125.402 68.8572 125.002 68.4572C122.735 66.4572 122.468 62.9905 124.468 60.7239C125.135 59.9905 125.735 59.2572 126.202 58.6572C126.935 57.7905 127.402 56.7239 127.535 55.5905C127.802 53.7239 128.202 50.6572 128.602 47.8572C129.002 44.3905 131.935 41.7905 135.402 41.7239Z" fill="#E54D4D"/>
<path fill-rule="evenodd" clip-rule="evenodd" d="M134.535 41.7906L135.068 69.2572C135.068 69.2572 141.468 69.5239 146.402 69.7239C149.535 69.8572 152.268 67.4572 152.535 64.3239C152.735 62.1239 152.135 59.9239 150.868 58.0572C150.402 57.3239 149.868 56.5239 149.335 55.8572C148.135 54.1239 147.268 52.1239 146.802 50.0572C146.535 49.0572 146.268 47.8572 146.002 46.6572C145.402 44.2572 143.735 42.2572 141.468 41.2572C139.268 40.3239 136.668 40.5239 134.535 41.7906Z" fill="#E54D4D"/>
<path fill-rule="evenodd" clip-rule="evenodd" d="M129.934 62.3239C129.934 62.3239 130.8 62.3239 131.667 62.3239C132.467 62.3239 133.134 61.6572 133.067 60.8572C133.067 58.9239 133 55.7906 133 55.7906L141.4 55.6572C141.4 55.6572 141.467 59.0572 141.467 61.0572C141.467 61.8572 142.067 62.4572 142.867 62.4572C143.734 62.4572 144.667 62.5239 144.667 62.5239L144.8 74.7906L130.067 74.9906L129.934 62.3239Z" fill="#F4A684"/>
<path fill-rule="evenodd" clip-rule="evenodd" d="M141.801 56.2573H132.668V61.724C132.668 61.724 134.268 64.124 137.268 64.124C140.335 64.124 141.801 61.724 141.801 61.724V56.2573Z" fill="#FFB4B4"/>
<path fill-rule="evenodd" clip-rule="evenodd" d="M126.4 65.8573L125.934 88.924H150.067L145.8 62.4573L142.934 62.3907C142.934 62.3907 140.134 71.9907 137.267 71.924C134.4 71.924 131.6 62.2573 131.6 62.2573H128.867L126.4 65.8573Z" fill="white"/>
<path fill-rule="evenodd" clip-rule="evenodd" d="M141.934 65.3906C141.467 66.5906 140.867 67.9906 140.201 69.1906H146.801L146.201 65.3906H141.934ZM132.667 65.3906H126.801V69.1906H134.334C133.734 67.9906 133.134 66.5906 132.667 65.3906Z" fill="black"/>
<path d="M150.067 72.9905H123.867V76.7905H150.067V72.9905Z" fill="black"/>
<path d="M150.067 80.9238H123.867V84.7238H150.067V80.9238Z" fill="black"/>
<path fill-rule="evenodd" clip-rule="evenodd" d="M145.336 62.4573C145.336 62.4573 145.536 62.4573 145.869 62.4573C148.936 62.5239 151.603 64.7239 152.136 67.7906C153.736 76.7239 156.936 93.9239 156.936 93.9239L151.336 96.1906C151.336 96.1906 150.336 94.1239 149.203 91.9239C147.469 88.4573 146.469 84.6573 146.269 80.7906C145.936 73.6573 145.336 62.4573 145.336 62.4573Z" fill="#1C2F7A"/>
<path fill-rule="evenodd" clip-rule="evenodd" d="M127.666 88.5906C127.666 88.5906 119.332 98.2572 122.599 107.124C123.599 109.791 126.599 112.657 132.199 112.924C137.999 113.191 144.999 113.124 150.532 112.924C152.866 112.857 155.132 111.724 156.532 109.857C157.999 107.991 158.532 105.591 157.999 103.257C157.666 101.791 156.932 100.457 155.932 99.3906C154.399 97.7906 151.999 95.3239 150.666 93.9239C149.999 93.1906 149.399 92.3906 149.066 91.4572C148.532 90.1906 147.866 88.5906 147.866 88.5906H127.666Z" fill="#141E4B"/>
<path fill-rule="evenodd" clip-rule="evenodd" d="M149.602 60.5239C149.602 60.5239 149.535 60.5239 149.535 60.5906C147.002 62.7906 143.402 63.2572 140.469 61.6572C140.469 61.6572 140.535 61.6572 140.535 61.5906C143.069 59.3239 146.669 58.9239 149.602 60.5239Z" fill="#FFB4B4"/>
<path fill-rule="evenodd" clip-rule="evenodd" d="M129.669 62.324C129.669 62.324 128.802 62.324 127.602 62.2573C126.269 62.2573 124.935 62.724 124.002 63.6573C123.069 64.5907 122.469 65.8573 122.469 67.1907C122.402 73.8573 122.269 84.6573 122.269 84.6573L119.469 93.6573L127.002 95.9907C127.002 95.9907 129.402 89.5907 131.002 85.3907C131.935 82.9907 132.202 80.3907 131.802 77.8573C131.069 72.2573 129.669 62.324 129.669 62.324Z" fill="#1C2F7A"/>
<path fill-rule="evenodd" clip-rule="evenodd" d="M143.069 46.4572C143.135 45.4572 142.802 44.4572 142.135 43.7906C141.469 43.0572 140.535 42.6572 139.535 42.6572C138.135 42.6572 136.535 42.6572 135.135 42.6572C134.135 42.6572 133.202 43.0572 132.535 43.7906C131.869 44.5239 131.535 45.5239 131.602 46.4572C131.802 49.0572 132.069 52.3906 132.202 54.3906C132.269 55.5906 132.735 56.7239 133.402 57.7239C134.402 59.0572 135.935 60.7906 137.335 60.7906C138.935 60.7906 140.402 59.1239 141.335 57.7906C142.002 56.8572 142.402 55.7239 142.469 54.5906C142.602 52.5906 142.869 49.1906 143.069 46.4572Z" fill="#F4A684"/>
<path fill-rule="evenodd" clip-rule="evenodd" d="M137.399 56.3906C137.599 56.3906 137.666 56.2573 137.866 56.1906C138.733 55.924 139.599 56.4573 139.599 56.4573C139.599 56.4573 138.799 57.6573 137.399 57.724C135.999 57.6573 135.199 56.4573 135.199 56.4573C135.199 56.4573 136.066 55.924 136.933 56.1906C137.133 56.2573 137.199 56.3906 137.399 56.3906Z" fill="#E54D4D"/>
<path fill-rule="evenodd" clip-rule="evenodd" d="M131.133 49.124C131.867 48.924 132.8 49.9906 133.133 51.4573C133.467 52.9906 133.2 54.324 132.4 54.5907C131.667 54.7907 130.733 53.724 130.4 52.2573C130 50.724 130.333 49.324 131.133 49.124Z" fill="#F4A684"/>
<path fill-rule="evenodd" clip-rule="evenodd" d="M145.468 48.0571C145.201 44.6571 142.334 42.0571 138.934 42.0571C137.868 42.0571 136.734 42.0571 135.668 42.0571C133.134 42.0571 131.068 43.9905 130.868 46.5238C130.801 47.3238 130.734 47.8571 130.734 47.8571L131.001 48.9238L132.334 51.7905L134.534 47.0571C134.534 47.0571 136.134 50.1905 137.268 51.5238C139.534 54.1238 142.934 55.5238 144.068 55.8571C144.268 55.9238 144.534 56.0571 144.734 56.1905C145.201 56.5238 146.201 57.2571 146.201 57.2571C146.201 57.2571 145.801 52.3238 145.468 48.0571Z" fill="#E54D4D"/>
<path d="M180.999 112.524H47.2656V116.924H180.999V112.524Z" fill="#B7694E"/>
<path d="M173.669 76.324H171.469V84.1906H173.669V76.324Z" fill="black"/>
<path fill-rule="evenodd" clip-rule="evenodd" d="M182.333 76.9907C182.6 76.324 182.4 75.0573 182 73.5907C180.8 69.3907 177.267 66.2573 172.933 65.5907C170.4 65.1907 167.8 66.0573 166.067 67.9907C164.333 69.8573 163.667 72.524 164.267 75.0573C164.333 75.324 164.4 75.524 164.4 75.724C165 77.6573 181.6 78.6573 182.333 76.9907Z" fill="#20DFCC"/>
<path fill-rule="evenodd" clip-rule="evenodd" d="M119.199 86.7904C118.932 86.3238 118.866 85.7238 119.066 85.1904C119.266 84.6571 119.666 84.2571 120.199 84.0571C121.932 83.5238 123.999 82.7904 123.999 82.7904C123.999 82.7904 128.732 79.2571 130.666 77.8571C131.199 77.4571 131.799 77.3238 132.399 77.5238C133.799 77.8571 136.332 78.4571 137.399 78.7238C137.532 78.7238 137.599 78.8571 137.666 78.9238C137.732 79.0571 137.732 79.1238 137.666 79.2571C137.599 79.3238 137.599 79.3904 137.532 79.4571C137.466 79.5904 137.332 79.6571 137.199 79.6571C136.266 79.6571 132.999 79.5238 132.999 79.5238C132.999 79.5238 132.932 81.1238 132.866 82.1238C132.866 82.6571 132.532 83.1238 132.066 83.3904C130.866 84.0571 128.532 85.3904 127.932 85.7238C127.866 85.7904 127.732 85.7904 127.666 85.8571C127.066 86.1238 124.532 87.1238 122.666 87.9238C121.332 88.4571 119.866 87.9904 119.199 86.7904Z" fill="#F4A684"/>
<path fill-rule="evenodd" clip-rule="evenodd" d="M148.068 81.7904C148.068 81.7904 145.135 79.5238 144.202 78.7238C144.002 78.5905 143.802 78.4571 143.535 78.3905C143.002 78.1905 141.935 77.7905 141.202 77.5905C140.802 77.4571 140.335 77.6571 140.135 78.0571C139.935 78.4571 140.068 78.9238 140.468 79.1238C141.535 79.7238 143.602 80.9238 143.602 80.9238L148.068 81.7904Z" fill="#F4A684"/>
<path fill-rule="evenodd" clip-rule="evenodd" d="M142.133 74.6573C142.133 74.524 142.067 74.4573 142 74.3907C141.933 74.324 141.8 74.2573 141.733 74.2573C140.467 74.2573 136.6 74.2573 135.4 74.2573C135.267 74.2573 135.2 74.324 135.133 74.3907C135.067 74.4573 135 74.5907 135 74.6573C135 76.4573 135 84.1907 135 85.9907C135 86.124 135.067 86.1907 135.133 86.2573C135.2 86.324 135.333 86.3907 135.4 86.3907C136.667 86.3907 140.533 86.3907 141.733 86.3907C141.867 86.3907 141.933 86.324 142 86.2573C142.067 86.1907 142.133 86.0573 142.133 85.9907C142.133 84.1907 142.133 76.4573 142.133 74.6573Z" fill="#9094A4"/>
<path fill-rule="evenodd" clip-rule="evenodd" d="M157.202 87.9238C157.669 86.5905 157.002 85.0572 155.669 84.5905C154.069 83.9238 152.135 83.1905 152.135 83.1905C152.135 83.1905 144.869 80.0572 144.202 79.7905H144.135C143.602 79.7238 139.202 79.1238 137.335 78.8572C137.135 78.8572 136.935 78.8572 136.735 79.0572C136.602 79.1905 136.469 79.3905 136.469 79.5905C136.469 79.7238 136.469 79.8572 136.469 79.8572C136.469 79.8572 136.935 80.3905 137.202 80.7238C137.335 80.8572 137.402 81.0572 137.469 81.2572C137.602 81.7238 137.869 82.7238 138.069 83.5238C138.269 84.1238 138.735 84.5905 139.402 84.6572C140.935 84.8572 143.669 85.2572 144.602 85.3905C144.802 85.3905 145.002 85.4572 145.202 85.5905C146.402 86.1238 151.135 88.1238 154.002 89.3905C154.602 89.6572 155.269 89.6572 155.869 89.3905C156.535 89.0572 157.002 88.5905 157.202 87.9238Z" fill="#F4A684"/>
<path fill-rule="evenodd" clip-rule="evenodd" d="M123.401 64.3906C123.401 64.3906 108.868 82.0573 112.534 88.724C116.134 95.2573 126.468 87.5906 126.468 87.5906L124.668 81.324L122.468 81.924L126.401 73.6573L123.401 64.3906Z" fill="#1C2F7A"/>
<path fill-rule="evenodd" clip-rule="evenodd" d="M150.668 64.7905C150.668 64.7905 167.001 83.9239 162.135 89.1905C158.135 93.4572 148.735 87.8572 148.735 87.8572L149.335 81.8572L153.001 81.9905L147.668 75.6572L147.868 67.8572L150.668 64.7905Z" fill="#1C2F7A"/>
<path fill-rule="evenodd" clip-rule="evenodd" d="M146.002 106.057C145.935 104.524 146.468 102.99 147.535 101.857C148.602 100.724 150.068 100.057 151.668 100.057C153.202 100.057 154.735 100.724 155.802 101.857C156.868 102.99 157.402 104.524 157.335 106.057C156.602 118.524 154.935 146.257 154.935 146.257L156.602 153.057H149.468L148.802 148.457C148.668 148.39 146.802 118.99 146.002 106.057Z" fill="#F4A684"/>
<path fill-rule="evenodd" clip-rule="evenodd" d="M155.067 142.391H148.334L147.801 133.924H155.601L155.067 142.391Z" fill="#FFD2A8"/>
<path fill-rule="evenodd" clip-rule="evenodd" d="M144.535 106.924C144.868 105.257 144.468 103.524 143.402 102.19C142.335 100.857 140.735 100.124 139.002 100.124C136.068 100.124 133.602 102.39 133.402 105.324C132.468 117.39 130.202 146.324 130.202 146.324L129.602 153.124H136.735L136.468 146.19C136.402 146.124 141.868 119.724 144.535 106.924Z" fill="#F4A684"/>
<path fill-rule="evenodd" clip-rule="evenodd" d="M137.202 142.391H130.469L131.135 133.924H138.935L137.202 142.391Z" fill="#FFD2A8"/>
<path fill-rule="evenodd" clip-rule="evenodd" d="M147.867 153.057C147.867 153.657 148.067 154.191 148.467 154.657C148.867 155.057 149.467 155.324 150.001 155.324C152.134 155.324 155.267 155.324 157.334 155.324C157.801 155.324 158.267 155.124 158.601 154.724C158.934 154.324 159.067 153.857 159.001 153.391C159.001 153.191 158.934 153.057 158.934 153.057C158.934 153.057 157.267 150.324 156.067 148.457C155.267 147.257 154.934 145.791 155.001 144.324C155.134 142.191 155.267 139.324 155.267 139.324L148.134 139.257C148.134 139.257 148.401 143.124 148.467 145.124C148.534 145.924 148.534 146.724 148.401 147.591C148.267 149.457 147.867 152.991 147.867 153.057C147.867 152.991 147.867 152.991 147.867 153.057Z" fill="#1C2F7A"/>
<path fill-rule="evenodd" clip-rule="evenodd" d="M128.332 153.391C128.332 154.457 129.199 155.324 130.266 155.324C132.466 155.324 135.999 155.324 138.132 155.324C139.066 155.324 139.866 154.524 139.866 153.591C139.866 153.257 139.732 152.924 139.532 152.591C139.199 152.124 138.732 151.391 138.199 150.724C137.132 149.191 136.732 147.391 136.932 145.524C137.266 142.857 137.732 139.257 137.732 139.257H130.599C130.599 139.257 130.266 143.324 130.066 145.724C129.999 146.791 129.799 147.857 129.466 148.857C129.066 150.257 128.532 152.124 128.332 152.857C128.266 153.057 128.266 153.191 128.266 153.391C128.332 153.324 128.332 153.324 128.332 153.391Z" fill="#1C2F7A"/>
<path d="M67.3997 144.591H65.0664V154.391H67.3997V144.591Z" fill="black"/>
<path fill-rule="evenodd" clip-rule="evenodd" d="M101.733 133.19C95.8662 133.19 91.1328 137.924 91.1328 143.79C91.1328 149.657 95.8662 154.39 101.733 154.39C107.599 154.39 112.333 149.657 112.333 143.79C112.333 137.924 107.599 133.19 101.733 133.19Z" fill="black"/>
<path d="M101.734 149.657C104.974 149.657 107.601 147.031 107.601 143.79C107.601 140.55 104.974 137.924 101.734 137.924C98.4938 137.924 95.8672 140.55 95.8672 143.79C95.8672 147.031 98.4938 149.657 101.734 149.657Z" fill="#383B45"/>
<path fill-rule="evenodd" clip-rule="evenodd" d="M36.2 108.324C36.2 108.324 46.9333 132.591 49.6 138.657C49.9333 139.457 50.8 139.991 51.6667 139.991C57.9333 139.991 81.9333 139.991 81.9333 139.991L78.2667 147.857H48.6667C47 147.857 45.4667 146.857 44.8667 145.324C41.7333 138.124 33 117.791 33 117.791L36.2 108.324Z" fill="#20DFCC"/>
<path fill-rule="evenodd" clip-rule="evenodd" d="M81.5336 139.99H100.6C101.667 139.99 102.667 140.39 103.4 141.124C104.134 141.857 104.534 142.857 104.534 143.924C104.534 144.99 104.134 145.99 103.4 146.724C102.667 147.457 101.667 147.857 100.6 147.857C94.8003 147.857 77.9336 147.857 77.9336 147.857L81.5336 139.99Z" fill="#20DFCC"/>
<path d="M36 108.324H32V133.257H36V108.324Z" fill="black"/>
<path d="M36.5357 48.7239H31.4023V57.1239H36.5357V48.7239Z" fill="black"/>
<path fill-rule="evenodd" clip-rule="evenodd" d="M36.6021 56.2573H31.4688V120.591C31.4688 120.791 31.5354 121.057 31.7354 121.191C31.8687 121.324 32.1354 121.457 32.3354 121.457C33.2687 121.457 34.8021 121.457 35.8021 121.457C36.0021 121.457 36.2687 121.391 36.4021 121.191C36.5354 121.057 36.6687 120.791 36.6687 120.591C36.6021 112.991 36.6021 56.2573 36.6021 56.2573Z" fill="#20DFCC"/>
<path fill-rule="evenodd" clip-rule="evenodd" d="M57.2005 46.5238C57.2005 46.3238 57.1339 46.1905 57.0005 46.0572C56.8672 45.9238 56.6672 45.8572 56.5339 45.8572C51.2005 45.8572 16.8672 45.8572 11.5339 45.8572C11.3339 45.8572 11.2005 45.9238 11.0672 46.0572C10.9339 46.1905 10.8672 46.3905 10.8672 46.5238C10.8672 47.3238 10.8672 48.7238 10.8672 49.5238C10.8672 49.7238 10.9339 49.8572 11.0672 49.9905C11.2005 50.1238 11.4005 50.1905 11.5339 50.1905C16.8672 50.1905 51.2005 50.1905 56.5339 50.1905C56.7339 50.1905 56.8672 50.1238 57.0005 49.9905C57.1339 49.8572 57.2005 49.6572 57.2005 49.5238C57.2005 48.7238 57.2005 47.3238 57.2005 46.5238Z" fill="black"/>
<path fill-rule="evenodd" clip-rule="evenodd" d="M57.2021 46.5239C57.2021 46.1239 56.8688 45.7905 56.4688 45.7905C55.6688 45.7905 54.4688 45.7905 54.4688 45.7905V50.1905H56.4688C56.8688 50.1905 57.2021 49.8572 57.2021 49.4572C57.2021 48.7239 57.2021 47.3239 57.2021 46.5239Z" fill="#484A52"/>
<path fill-rule="evenodd" clip-rule="evenodd" d="M10.8008 49.5238C10.8008 49.9238 11.1341 50.2572 11.5341 50.2572C12.3341 50.2572 13.5341 50.2572 13.5341 50.2572V45.8572H11.5341C11.1341 45.8572 10.8008 46.1905 10.8008 46.5905C10.8008 47.3238 10.8008 48.7238 10.8008 49.5238Z" fill="#484A52"/>
<path d="M34.0026 63.3905C34.9231 63.3905 35.6693 62.6443 35.6693 61.7238C35.6693 60.8033 34.9231 60.0571 34.0026 60.0571C33.0821 60.0571 32.3359 60.8033 32.3359 61.7238C32.3359 62.6443 33.0821 63.3905 34.0026 63.3905Z" fill="white"/>
<path fill-rule="evenodd" clip-rule="evenodd" d="M27.5331 129.257C27.2664 129.657 27.0664 130.124 27.0664 130.59C27.0664 132.79 27.0664 139.457 27.0664 142.457C27.0664 143.257 27.7331 143.924 28.5331 143.924C28.9331 143.924 29.3331 143.79 29.5997 143.457C29.8664 143.19 30.0664 142.79 30.0664 142.39C30.0664 139.324 30.0664 132.39 30.0664 130.857C30.0664 130.657 30.1331 130.524 30.1997 130.324C30.4664 129.857 31.1997 128.79 31.5331 128.19C31.7331 127.924 31.9997 127.724 32.3331 127.724C33.0664 127.724 34.1997 127.724 34.1997 127.724V125.124C34.1997 125.124 32.3997 125.124 31.3331 125.124C30.8664 125.124 30.3997 125.324 30.1331 125.724C29.5331 126.657 28.2664 128.39 27.5331 129.257Z" fill="#383B45"/>
<path fill-rule="evenodd" clip-rule="evenodd" d="M40.4674 129.257C40.7341 129.657 40.9341 130.124 40.9341 130.59C40.9341 132.79 40.9341 139.457 40.9341 142.457C40.9341 143.257 40.2674 143.924 39.4674 143.924C39.0674 143.924 38.6674 143.79 38.4008 143.457C38.1341 143.124 37.9341 142.79 37.9341 142.39C37.9341 139.324 37.9341 132.39 37.9341 130.857C37.9341 130.657 37.8674 130.524 37.8008 130.324C37.5341 129.857 36.8008 128.79 36.4674 128.19C36.2674 127.924 36.0008 127.724 35.6674 127.724C34.9341 127.724 33.8008 127.724 33.8008 127.724V125.124C33.8008 125.124 35.6008 125.124 36.6674 125.124C37.1341 125.124 37.6008 125.324 37.8674 125.724C38.4674 126.657 39.7341 128.39 40.4674 129.257Z" fill="#383B45"/>
<path fill-rule="evenodd" clip-rule="evenodd" d="M38.0672 129.524C38.0672 128.991 37.8672 128.524 37.4672 128.124C37.0672 127.724 36.6005 127.524 36.0672 127.524C34.8005 127.524 33.1339 127.524 31.8672 127.524C31.3339 127.524 30.8672 127.724 30.4672 128.124C30.0672 128.524 29.8672 128.991 29.8672 129.524C29.8672 134.457 29.8672 147.457 29.8672 152.457C29.8672 152.991 30.0672 153.457 30.4672 153.857C30.8672 154.257 31.3339 154.457 31.8672 154.457C33.1339 154.457 34.8005 154.457 36.0672 154.457C36.6005 154.457 37.0672 154.257 37.4672 153.857C37.8672 153.457 38.0672 152.991 38.0672 152.457C38.0672 147.524 38.0672 134.524 38.0672 129.524Z" fill="black"/>
<path fill-rule="evenodd" clip-rule="evenodd" d="M52.1328 139.99H91.8661L88.4661 147.857H52.1328V139.99Z" fill="black"/>
</svg>
